<svg xmlns="http://www.w3.org/2000/svg" width="545" height="737" viewBox="0 0 545 737"><defs><filter id="a" x="0" y="230.5" width="543" height="65" filterUnits="userSpaceOnUse"><feOffset dy="2"/><feGaussianBlur stdDeviation="2.5" result="blur"/><feFlood flood-opacity=".161"/><feComposite operator="in" in2="blur"/><feComposite in="SourceGraphic"/></filter><filter id="b" x="0" y="614.5" width="543" height="65" filterUnits="userSpaceOnUse"><feOffset dy="2"/><feGaussianBlur stdDeviation="2.5" result="blur-2"/><feFlood flood-opacity=".161"/><feComposite operator="in" in2="blur-2"/><feComposite in="SourceGraphic"/></filter><filter id="c" x="0" y="351.5" width="543" height="127" filterUnits="userSpaceOnUse"><feOffset dy="2"/><feGaussianBlur stdDeviation="2.5" result="blur-3"/><feFlood flood-opacity=".161"/><feComposite operator="in" in2="blur-3"/><feComposite in="SourceGraphic"/></filter><filter id="d" x="0" y="493.5" width="545" height="65" filterUnits="userSpaceOnUse"><feOffset dy="2"/><feGaussianBlur stdDeviation="2.5" result="blur-4"/><feFlood flood-opacity=".161"/><feComposite operator="in" in2="blur-4"/><feComposite in="SourceGraphic"/></filter></defs><g data-name="Group 5277"><text data-name="Enter a name for this rule" transform="translate(25.5 85)" fill="#9398a5" font-size="16" font-family="Roboto-Regular, Roboto"><tspan x="0" y="0">Enter a name for this rule</tspan></text><g data-name="Rectangle 4609" transform="translate(7.5 53)" fill="none" stroke="#9398a5"><rect width="530" height="50" rx="4" stroke="none"/><rect x=".5" y=".5" width="529" height="49" rx="3.5"/></g></g><g data-name="Group 5338"><text transform="translate(25.5 149)" fill="#9398a5" font-size="16" font-family="Roboto-Regular, Roboto"><tspan x="0" y="0">Description</tspan></text><g data-name="Rectangle 4609" transform="translate(7.5 117)" fill="none" stroke="#9398a5"><rect width="530" height="50" rx="4" stroke="none"/><rect x=".5" y=".5" width="529" height="49" rx="3.5"/></g></g><text data-name="Move based on sender" transform="translate(9.5 18)" fill="#2e4453" font-size="16" font-family="Roboto-Bold, Roboto" font-weight="700"><tspan x="0" y="0">Move based on sender</tspan></text><text data-name="Rule is active" transform="translate(419.5 17)" fill="#2e4453" font-size="14" font-family="Roboto-Regular, Roboto"><tspan x="0" y="0">Rule is active</tspan></text><text transform="translate(510.5 21)" fill="#1da1f3" font-size="24" font-family="FontAwesome5Pro-Solid, 'Font Awesome \35 Pro'"><tspan x="0" y="0">toggle-on</tspan></text><g data-name="Group 5414"><g filter="url(#a)"><rect data-name="Rectangle 4609" width="528" height="50" rx="4" transform="translate(7.5 236)" fill="#fff"/></g><g filter="url(#b)"><rect data-name="Rectangle 4780" width="528" height="50" rx="4" transform="translate(7.5 620)" fill="#fff"/></g><g filter="url(#c)"><rect data-name="Rectangle 4767" width="528" height="112" rx="4" transform="translate(7.5 357)" fill="#fff"/></g><text transform="translate(9.5 219)" fill="#2e4453" font-size="16" font-family="Roboto-Bold, Roboto" font-weight="700"><tspan x="0" y="0">When...</tspan></text><text transform="translate(9.5 340)" fill="#2e4453" font-size="16" font-family="Roboto-Bold, Roboto" font-weight="700"><tspan x="0" y="0">If...</tspan></text><text transform="translate(9.5 603)" fill="#2e4453" font-size="16" font-family="Roboto-Bold, Roboto" font-weight="700"><tspan x="0" y="0">Then...</tspan></text><text data-name="Inbound message is received" transform="translate(53.5 267)" font-size="16" font-family="Roboto-Regular, Roboto"><tspan x="0" y="0">Inbound message is received</tspan></text><text transform="translate(155.5 393)" font-size="16" font-family="Roboto-Regular, Roboto"><tspan x="0" y="0">field</tspan></text><text transform="translate(261.5 651)" font-size="16" font-family="Roboto-Regular, Roboto"><tspan x="0" y="0">and</tspan></text><text data-name="Move to" transform="translate(50.5 651)" font-size="16" font-family="Roboto-Regular, Roboto"><tspan x="0" y="0">Move to</tspan></text><g data-name="Group 5384"><g data-name="Group 5133"><text transform="translate(69.5 392)" fill="#9398a5" font-size="16" font-family="Roboto-Regular, Roboto"><tspan x="0" y="0">From</tspan></text><g data-name="Rectangle 4609" fill="none" stroke="#9398a5" transform="translate(51.5 371)"><rect width="91" height="31" rx="4" stroke="none"/><rect x=".5" y=".5" width="90" height="30" rx="3.5"/></g></g><g data-name="Group 5134"><path data-name="Rectangle 4606" fill="none" d="M110.5 369h36v36h-36z"/><text transform="translate(128.5 392)" fill="#9398a5" font-size="12" font-family="FontAwesome5Pro-Regular, 'Font Awesome \35 Pro'"><tspan x="-5.25" y="0">chevron-down</tspan></text></g></g><g data-name="Group 5412"><g data-name="Group 5133"><text data-name="Select inbox" transform="translate(132.5 650)" fill="#9398a5" font-size="16" font-family="Roboto-Regular, Roboto"><tspan x="0" y="0">Select inbox</tspan></text><g data-name="Rectangle 4609" fill="none" stroke="#9398a5" transform="translate(119.5 629)"><rect width="130" height="31" rx="4" stroke="none"/><rect x=".5" y=".5" width="129" height="30" rx="3.5"/></g></g><g data-name="Group 5134"><path data-name="Rectangle 4606" fill="none" d="M217.5 627h36v36h-36z"/><text data-name="chevron-down" transform="translate(235.5 650)" fill="#9398a5" font-size="12" font-family="FontAwesome5Pro-Regular, 'Font Awesome \35 Pro'"><tspan x="-5.25" y="0">chevron-down</tspan></text></g></g><g data-name="Group 5409"><g data-name="Group 5133"><text transform="translate(210.5 392)" fill="#9398a5" font-size="16" font-family="Roboto-Regular, Roboto"><tspan x="0" y="0">Contains</tspan></text><g data-name="Rectangle 4609" fill="none" stroke="#9398a5" transform="translate(195.5 371)"><rect width="114" height="31" rx="4" stroke="none"/><rect x=".5" y=".5" width="113" height="30" rx="3.5"/></g></g><g data-name="Group 5134"><path data-name="Rectangle 4606" fill="none" d="M273.5 369h36v36h-36z"/><text data-name="chevron-down" transform="translate(291.5 392)" fill="#9398a5" font-size="12" font-family="FontAwesome5Pro-Regular, 'Font Awesome \35 Pro'"><tspan x="-5.25" y="0">chevron-down</tspan></text></g></g><g data-name="Group 5413"><g data-name="Group 5133"><text data-name="Restrict Participants" transform="translate(316.5 650)" fill="#9398a5" font-size="16" font-family="Roboto-Regular, Roboto"><tspan x="0" y="0">Restrict Participants</tspan></text><g data-name="Rectangle 4609" fill="none" stroke="#9398a5" transform="translate(301.5 629)"><rect width="194" height="31" rx="4" stroke="none"/><rect x=".5" y=".5" width="193" height="30" rx="3.5"/></g></g><g data-name="Group 5134"><path data-name="Rectangle 4606" fill="none" d="M459.5 627h36v36h-36z"/><text data-name="chevron-down" transform="translate(477.5 650)" fill="#9398a5" font-size="12" font-family="FontAwesome5Pro-Regular, 'Font Awesome \35 Pro'"><tspan x="-5.25" y="0">chevron-down</tspan></text></g></g><g data-name="Group 5408"><g data-name="Group 5133"><text data-name="Email Address" transform="translate(47.5 444)" fill="#9398a5" font-size="16" font-family="Roboto-Regular, Roboto"><tspan x="0" y="0">Email Address</tspan></text><g data-name="Rectangle 4609" fill="none" stroke="#9398a5" transform="translate(26.5 423)"><rect width="475" height="31" rx="4" stroke="none"/><rect x=".5" y=".5" width="474" height="30" rx="3.5"/></g></g><g data-name="Group 5134"><path data-name="Rectangle 4606" fill="none" d="M469.5 421h36v36h-36z"/></g></g><text transform="translate(34.5 267)" font-size="16" font-family="FontAwesome5Pro-Regular, 'Font Awesome \35 Pro'"><tspan x="-9" y="0">Inbox</tspan></text><text transform="translate(34.5 393)" font-size="16" font-family="FontAwesome5Pro-Regular, 'Font Awesome \35 Pro'"><tspan x="-7" y="0">user</tspan></text><text transform="translate(34.5 651)" font-size="16" font-family="FontAwesome5Pro-Regular, 'Font Awesome \35 Pro'"><tspan x="-7" y="0">arrow-right</tspan></text><text data-name="Stop processing other rules" transform="translate(50.5 730)" fill="#2e4453" font-size="14" font-family="Roboto-Regular, Roboto"><tspan x="0" y="0">Stop processing other rules</tspan></text><text transform="translate(13.5 734)" fill="#9398a5" font-size="24" font-family="FontAwesome5Pro-Light, 'Font Awesome \35 Pro'" font-weight="300"><tspan x="0" y="0">square</tspan></text><text data-name="More Options" transform="translate(439.5 219)" fill="#1da1f3" font-size="16" font-family="Roboto-Regular, Roboto"><tspan x="0" y="0">More Options</tspan></text><text data-name="More Options" transform="translate(439.5 340)" fill="#1da1f3" font-size="16" font-family="Roboto-Regular, Roboto"><tspan x="0" y="0">More Options</tspan></text><text data-name="More Options" transform="translate(439.5 603)" fill="#1da1f3" font-size="16" font-family="Roboto-Regular, Roboto"><tspan x="0" y="0">More Options</tspan></text><text data-name="AND" transform="translate(259.5 488)" font-size="12" font-family="Roboto-Regular, Roboto"><tspan x="0" y="0">AND</tspan></text><g data-name="Group 5411"><g filter="url(#d)"><rect data-name="Rectangle 4779" width="530" height="50" rx="4" transform="translate(7.5 499)" fill="#fff"/></g><text data-name="Conversation is in" transform="translate(53.5 530)" font-size="16" font-family="Roboto-Regular, Roboto"><tspan x="0" y="0">Conversation is in</tspan></text><g data-name="Group 5410"><g data-name="Group 5133"><text data-name="Select an inbox" transform="translate(213.5 529)" fill="#9398a5" font-size="16" font-family="Roboto-Regular, Roboto"><tspan x="0" y="0">Select an inbox</tspan></text><g data-name="Rectangle 4609" fill="none" stroke="#9398a5" transform="translate(195.5 508)"><rect width="171" height="31" rx="4" stroke="none"/><rect x=".5" y=".5" width="170" height="30" rx="3.5"/></g></g><g data-name="Group 5134"><path data-name="Rectangle 4606" fill="none" d="M334.5 506h36v36h-36z"/><text data-name="chevron-down" transform="translate(352.5 529)" fill="#9398a5" font-size="12" font-family="FontAwesome5Pro-Regular, 'Font Awesome \35 Pro'"><tspan x="-5.25" y="0">chevron-down</tspan></text></g></g><text data-name="Inbox" transform="translate(34.5 530)" font-size="16" font-family="FontAwesome5Pro-Regular, 'Font Awesome \35 Pro'"><tspan x="-9" y="0">Inbox</tspan></text></g></g></svg>