<svg width="90" height="37" viewBox="0 0 90 37" fill="none" xmlns="http://www.w3.org/2000/svg"><path d="M35.636 21.521H9.244a9.535 9.535 0 003.72 5.62 9.697 9.697 0 006.538 1.796 21.619 21.619 0 0011.35-3.517l3.615 6.33a26.79 26.79 0 01-15.357 4.78C5.954 36.541.017 27.651.017 18.321a17.382 17.382 0 011.172-7.092 17.514 17.514 0 013.946-6.03 17.711 17.711 0 016.056-3.956 17.846 17.846 0 017.15-1.216 16.821 16.821 0 016.917 1.062 16.695 16.695 0 015.867 3.78 16.506 16.506 0 013.785 5.832 16.38 16.38 0 011.037 6.857 25.935 25.935 0 01-.312 3.963zM9.244 14.81h17.873a8.408 8.408 0 00-2.965-5.324 8.559 8.559 0 00-5.81-1.962 9.064 9.064 0 00-5.906 1.981 8.91 8.91 0 00-3.192 5.305zm37.357 21.72a5.5 5.5 0 10-.244-10.997 5.5 5.5 0 00.244 10.997zm27.979.001c-5.18 0-9.362-1.623-12.67-4.868-3.308-3.308-4.93-7.49-4.93-12.546 0-5.118 1.684-9.3 4.992-12.608 3.37-3.308 7.677-4.93 12.92-4.93 6.553 0 12.544 3.432 15.103 8.675l-4.619 2.684c-2.309-3.807-6.178-6.241-10.485-6.241-3.557 0-6.49 1.186-8.8 3.557-2.309 2.372-3.495 5.306-3.495 8.863 0 3.495 1.124 6.43 3.37 8.8 2.31 2.31 5.18 3.496 8.613 3.496 2.122 0 4.182-.562 6.179-1.747 1.997-1.186 3.495-2.622 4.431-4.37l4.619 2.684c-2.746 5.056-8.738 8.551-15.229 8.551z" fill="#fff"/></svg>