<svg width="398" height="50" viewBox="0 0 398 50" fill="none" xmlns="http://www.w3.org/2000/svg"><g clip-path="url(#clip0_525_1066)"><path d="M37 34.002H9c1.127 4.376 4.835 8 11 8a23.6 23.6 0 0012-4l3 7a25.038 25.038 0 01-15 5c-13.526 0-20-9.317-20-19 0-10.809 7.729-19 19-19 10.276 0 18 6.534 18 18a25.558 25.558 0 010 4zm-28-7h19c-.606-4.468-4.495-7.183-9-7-4.55-.124-9.166 2.523-10 7zm30-14h10v5c1.857-3.381 5.629-6 11-6 7.293 0 14 4.79 14 15v22h-9v-20c0-5.834-3.492-9-8-9-4.906 0-8 4.564-8 10v19H39v-36zm65 34a21.173 21.173 0 01-11 3c-8.287 0-13-4.652-13-14v-15h-5v-8h6v-13h9v13h12v8H90v14c0 4.176 1.491 6 5 6 2.14-.13 4.21-.82 6-2l3 8z" fill="#EB0045"/><path d="M138 34.002h-27c1.127 4.376 4.834 8 11 8 4.29-.216 8.439-1.6 12-4l3 7a28.05 28.05 0 01-16 5c-13.525 0-19-9.315-19-19 0-10.807 7.729-19 19-19 10.276 0 18 6.534 18 18 0 1.377-.786 2.635-1 4zm-27-7h19c-.606-4.467-4.5-7.183-9-7-4.551-.124-9.166 2.523-10 7zm89 4c0-11.006 8.531-19 20-19 7.161 0 12.951 3.436 16 10l-7 4c-1.873-3.343-5.168-4.938-9-5-5.694-.056-10.945 4.306-11 10-.055 5.694 5.306 9.945 11 10a9.94 9.94 0 009-5l7 4a19.285 19.285 0 01-17 10c-11.27 0-19-8-19-19zm66 16a21.175 21.175 0 01-11 3c-8.288 0-13-4.652-13-14v-15h-6v-8h6v-13h10v13h12v8h-12v14c0 4.176 1.486 6 5 6 2.141-.13 4.209-.82 6-2l3 8zm-102-34c0 2.725-.056 5.475 0 8 .018.843-.477.748-1 1-4.889 2.358-8.788 5.577-10 11a28.288 28.288 0 00-1 5c-.065 3.632 0 7.293 0 11h-9c-.025-.388-1-.629-1-1-.005-3.13.167-6.879 0-10a15.58 15.58 0 012-8 30.692 30.692 0 0118-16c.518-.188 1.283-.789 2-1zm-21 13v-14h9a2.477 2.477 0 01-1 3c-3.728 3.293-6.163 5.417-8 10-.167.416.172.587 0 1zm54-1c-.16-5.668-2.474-10.762-8-13-6.718-2.72-14.268-2.293-21 0-.26.089 0 .778 0 1-.044 2.505 0 5.38 0 8 .885-.319 1.269-.782 2-1 4.2-1.522 8.8-1.522 13 0a6.699 6.699 0 014 8 48.49 48.49 0 00-5-1 34.747 34.747 0 00-6 0c-5.955.541-11.767 2.524-12 10-.141 4.566 1.712 8.712 6 11 3.96 2.111 11.508 2.99 16-1 .368-.328.386-1.5 1-2v4h10c-.019.154.048-.148 0 0 .011-7.937.223-16.073 0-24zm-15 17c-6.2 1.422-10.1.471-10-4 .1-4.471 4.937-6.406 9-6a55.35 55.35 0 016 1s1.2 7.576-5 9zm94 7a6.009 6.009 0 004-2 6.017 6.017 0 002-4 6.137 6.137 0 00-2-4c-1.032-1.045-2.531-1-4-1-1.5-.035-2.928-.048-4 1a5.956 5.956 0 00-2 4 5.84 5.84 0 002 4 5.847 5.847 0 004 2z" fill="#EB0045"/><path d="M294.588 47V.066h5.766V17.86a11.049 11.049 0 014.34-3.6 13.927 13.927 0 016.2-1.364 12.98 12.98 0 019.3 3.6c2.521 2.4 3.782 5.851 3.782 10.354V47h-5.89V28.524c0-3.267-.775-5.767-2.325-7.5a7.804 7.804 0 00-6.107-2.6 8.441 8.441 0 00-6.572 2.82 10.469 10.469 0 00-2.542 7.286V47h-5.952zM334.64 9.056a4.266 4.266 0 01-3.1-1.21 4.103 4.103 0 01-1.24-3.068 4.017 4.017 0 011.271-2.978A4.236 4.236 0 01334.64.56a4.11 4.11 0 012.976 1.209 4.041 4.041 0 011.24 3.007 4.165 4.165 0 01-1.209 3.069 4.084 4.084 0 01-3.007 1.21zM337.554 47H331.6V13.768h5.952L337.554 47zm7.936 0V13.768h5.642v4.9a9.926 9.926 0 019.548-5.768c1.318 0 2.63.169 3.906.5l-.558 5.766a11.702 11.702 0 00-3.472-.558 8.601 8.601 0 00-6.541 2.728c-1.715 1.819-2.573 4.505-2.573 8.06V47h-5.952zm52.2-17.236c0 .413-.062 1.426-.186 3.038h-26.47a11.818 11.818 0 003.6 6.85c1.901 1.758 4.588 2.636 8.06 2.636a19.894 19.894 0 006.138-1.023 19.228 19.228 0 005.456-2.7l2.542 4.526a22.727 22.727 0 01-6.297 3.289 23.477 23.477 0 01-7.967 1.364 20.378 20.378 0 01-8.029-1.488 14.215 14.215 0 01-5.58-4.03 17.661 17.661 0 01-3.1-5.58 19.883 19.883 0 01-1.023-6.386 17.237 17.237 0 014.681-12.4 16.013 16.013 0 0112.121-4.9 15.592 15.592 0 0111.564 4.528c2.996 3.017 4.494 7.11 4.494 12.276h-.004zm-9.176-8.99a9.84 9.84 0 00-6.882-2.542 9.972 9.972 0 00-6.975 2.635 11.702 11.702 0 00-3.627 6.789h20.522a9.648 9.648 0 00-3.034-6.882h-.004z" fill="#9398A5"/></g><defs><clipPath id="clip0_525_1066"><path fill="#fff" d="M0 0h397.694v50.001H0z"/></clipPath></defs></svg>