<svg width="186" height="22" viewBox="0 0 186 22" fill="none" xmlns="http://www.w3.org/2000/svg"><path d="M.35 17V.97h2.89v6.032c.59-.97 1.919-1.814 3.627-1.814 2.32 0 4.472 1.54 4.472 4.788V17H8.365v-6.222c0-1.856-.97-2.848-2.405-2.848-1.56 0-2.636 1.181-2.636 2.911v6.16H.35zM15 4.218c-1.033 0-1.834-.78-1.834-1.835 0-1.034.801-1.814 1.835-1.814 1.033 0 1.835.78 1.835 1.814 0 1.054-.802 1.835-1.835 1.835zM16.478 17h-2.974V5.505h2.974V17zM27.5 5.505h2.741V15.86c0 3.733-2.678 6.012-6.37 6.012-2.024 0-3.923-.697-5.273-1.667l1.16-2.236c1.034.697 2.49 1.35 4.029 1.35 2.341 0 3.586-1.392 3.586-3.185v-.59c-.802.886-1.94 1.476-3.544 1.476-3.396 0-5.737-2.51-5.737-5.885 0-3.48 2.594-5.927 5.864-5.927 1.56 0 2.72.654 3.543 1.561V5.505zm-3.228 8.922c1.835 0 3.185-1.413 3.185-3.27 0-1.856-1.35-3.227-3.185-3.227s-3.185 1.371-3.185 3.227c0 1.878 1.35 3.27 3.185 3.27zM32.515 17V.97h2.89v6.032c.59-.97 1.92-1.814 3.628-1.814 2.32 0 4.472 1.54 4.472 4.788V17H40.53v-6.222c0-1.856-.97-2.848-2.405-2.848-1.56 0-2.637 1.181-2.637 2.911v6.16h-2.974zm13.112 0V5.505h2.91v1.603c.591-1.076 1.899-1.92 3.607-1.92 2.32 0 4.493 1.54 4.493 4.788V17h-2.974v-6.222c0-1.856-.991-2.848-2.426-2.848-1.56 0-2.636 1.181-2.636 2.911v6.16h-2.974zm18.679.295c-3.67 0-6.16-2.7-6.16-6.053 0-3.312 2.49-6.054 6.16-6.054s6.159 2.742 6.159 6.054c0 3.353-2.489 6.053-6.16 6.053zm0-2.763c1.793 0 3.185-1.455 3.185-3.29 0-1.814-1.392-3.27-3.185-3.27-1.793 0-3.185 1.456-3.185 3.27 0 1.835 1.392 3.29 3.185 3.29zm13.379 2.763c-3.67 0-6.16-2.7-6.16-6.053 0-3.312 2.49-6.054 6.16-6.054s6.16 2.742 6.16 6.054c0 3.353-2.49 6.053-6.16 6.053zm0-2.763c1.793 0 3.185-1.455 3.185-3.29 0-1.814-1.392-3.27-3.185-3.27-1.793 0-3.185 1.456-3.185 3.27 0 1.835 1.392 3.29 3.185 3.29zM85.517 17V5.505h2.91v1.603c.591-1.076 1.899-1.92 3.607-1.92 2.32 0 4.493 1.54 4.493 4.788V17h-2.974v-6.222c0-1.856-.991-2.848-2.426-2.848-1.56 0-2.636 1.181-2.636 2.911v6.16h-2.974zm14.418.338c-.97 0-1.75-.739-1.75-1.73 0-.95.78-1.687 1.75-1.687a1.68 1.68 0 011.688 1.687c0 .991-.76 1.73-1.688 1.73zm8.902-.085c-3.353 0-5.758-2.447-5.758-5.885 0-3.48 2.468-5.927 5.885-5.927 2.215 0 4.176 1.118 5.041 2.911l-1.033.59c-.76-1.413-2.257-2.34-4.008-2.34-2.658 0-4.619 1.961-4.619 4.766 0 2.764 1.898 4.725 4.492 4.725 1.751 0 3.354-.991 4.071-2.341l1.034.633c-.907 1.75-2.911 2.868-5.105 2.868zm12.207.021c-3.396 0-5.863-2.615-5.863-5.927 0-3.29 2.467-5.906 5.863-5.906 3.396 0 5.864 2.616 5.864 5.906 0 3.312-2.468 5.927-5.864 5.927zm0-1.16c2.658 0 4.599-2.109 4.599-4.767 0-2.636-1.941-4.746-4.599-4.746-2.636 0-4.598 2.11-4.598 4.746 0 2.658 1.962 4.767 4.598 4.767zm8.11.886V5.715h1.224v1.983c.675-1.518 2.13-2.278 3.923-2.278 2.404 0 4.471 1.603 4.471 4.767V17h-1.265v-6.58c0-2.363-1.287-3.819-3.354-3.819-1.729 0-3.733 1.14-3.733 4.071V17h-1.266zm12.494 0V5.715h1.223v1.983c.675-1.518 2.13-2.278 3.923-2.278 2.405 0 4.472 1.603 4.472 4.767V17H150v-6.58c0-2.363-1.286-3.819-3.354-3.819-1.729 0-3.733 1.14-3.733 4.071V17h-1.265zm22.617-6.138c0 .464-.042.738-.063.992h-9.492c.19 2.404 1.709 4.218 4.578 4.218 1.476 0 3.121-.548 4.134-1.35l.59.97c-.991.802-2.763 1.561-4.746 1.561-4.155 0-5.863-2.995-5.863-5.927 0-3.354 2.193-5.885 5.61-5.885 2.953 0 5.252 2.004 5.252 5.421zm-5.252-4.26c-2.383 0-4.05 1.645-4.303 4.091h8.248c-.043-2.53-1.667-4.092-3.945-4.092zm12.456 10.651c-3.354 0-5.758-2.447-5.758-5.885 0-3.48 2.467-5.927 5.884-5.927 2.215 0 4.177 1.118 5.042 2.911l-1.034.59c-.759-1.413-2.257-2.34-4.008-2.34-2.657 0-4.619 1.961-4.619 4.766 0 2.764 1.899 4.725 4.493 4.725 1.751 0 3.354-.991 4.071-2.341l1.033.633c-.907 1.75-2.91 2.868-5.104 2.868zm13.536-1.94l.527.97c-.823.654-1.919.97-2.995.97-2.32 0-3.396-1.56-3.396-3.944V6.833h-2.004V5.715h2.025V1.73h1.245v3.986h4.64v1.118h-4.64v6.518c0 1.75.717 2.742 2.235 2.742.865 0 1.688-.295 2.363-.78z" fill="#fff"/></svg>