<svg width="36" height="36" viewBox="0 0 36 36" fill="none" xmlns="http://www.w3.org/2000/svg"><path d="M24.75 0h-13.5A11.25 11.25 0 000 11.25v13.5A11.25 11.25 0 0011.25 36h13.5A11.25 11.25 0 0036 24.75v-13.5A11.25 11.25 0 0024.75 0zm7.875 24.75c0 4.343-3.532 7.875-7.875 7.875h-13.5c-4.343 0-7.875-3.532-7.875-7.875v-13.5c0-4.343 3.532-7.875 7.875-7.875h13.5c4.343 0 7.875 3.532 7.875 7.875v13.5z" fill="#fff"/><path d="M18 9a9 9 0 100 18 9 9 0 000-18zm0 14.625A5.632 5.632 0 0112.375 18 5.631 5.631 0 0118 12.375c3.1 0 5.625 2.522 5.625 5.625 0 3.1-2.524 5.625-5.625 5.625zm9.675-14.101a1.2 1.2 0 100-2.398 1.2 1.2 0 000 2.398z" fill="#fff"/></svg>