<svg width="41" height="37" viewBox="0 0 41 37" fill="none" xmlns="http://www.w3.org/2000/svg"><path d="M41 4.276a16.474 16.474 0 01-4.843 1.439c1.76-1.132 3.075-2.924 3.698-5.037a16.03 16.03 0 01-5.33 2.206C33.372 1.549 31.876.622 30.23.22a7.794 7.794 0 00-4.93.418c-1.568.672-2.913 1.84-3.861 3.352a9.663 9.663 0 00-1.454 5.126c0 .722.056 1.417.195 2.078a22.357 22.357 0 01-9.601-2.762C7.593 6.79 4.96 4.482 2.855 1.662a9.796 9.796 0 00-.933 6.644c.48 2.263 1.737 4.243 3.516 5.536a7.814 7.814 0 01-3.798-1.123v.1c.002 2.105.673 4.144 1.9 5.775 1.226 1.631 2.934 2.754 4.834 3.18a7.767 7.767 0 01-2.204.3 6.873 6.873 0 01-1.59-.155c.542 1.808 1.59 3.39 2.996 4.527s3.103 1.773 4.857 1.821C9.458 30.79 5.79 32.16 2.012 32.154c-.69 0-1.35-.033-2.012-.125 3.843 2.685 8.322 4.106 12.895 4.09 15.467 0 23.923-13.892 23.923-25.934 0-.403-.013-.792-.03-1.178A17.62 17.62 0 0041 4.276z" fill="#fff"/></svg>