<svg width="41" height="40" viewBox="0 0 41 40" fill="none" xmlns="http://www.w3.org/2000/svg"><path d="M29.042 35v-3.333c0-1.768-.72-3.464-2.002-4.714A6.92 6.92 0 0022.208 25H8.542c-1.813 0-3.55.702-4.832 1.953a6.586 6.586 0 00-2.002 4.714V35m13.667-16.667c3.774 0 6.833-2.984 6.833-6.666C22.208 7.985 19.15 5 15.375 5s-6.833 2.985-6.833 6.667 3.06 6.666 6.833 6.666zM39.292 35v-3.333a6.563 6.563 0 00-1.433-4.08 6.848 6.848 0 00-3.692-2.37m-6.834-20a6.849 6.849 0 013.703 2.37 6.563 6.563 0 011.436 4.088c0 1.48-.505 2.918-1.436 4.088a6.848 6.848 0 01-3.703 2.37" stroke="#4393FC" stroke-width="3" stroke-linecap="round" stroke-linejoin="round"/></svg>