<svg width="34" height="34" viewBox="0 0 34 34" fill="none" xmlns="http://www.w3.org/2000/svg"><path d="M7 17c0-5.521 4.479-10 10-10s10 4.475 10 10c0 5.521-4.479 10-10 10S7 22.525 7 17z" fill="#702C90"/><path d="M20.857 15.352c-.295.08-2.973 2.157-3.15 2.67-.04.178.004 1.886.044 2.14.178.04 1.454.004 1.684.045l-.028.529c-.23-.016-1.85-.012-2.775-.012-.468 0-1.979.052-2.443.04l.089-.505c.254-.02 1.308.049 1.539-.198.113-.12.08-1.744.04-2.019-.097-.295-2.447-3.24-3.061-3.72h-1.584v-.739h5.336v.053h.02l-.02.125v.561H14.94c.72 1.05 1.745 2.315 2.185 2.924l2.149-1.946h-1.277l-.181-.74h4.68l-.036.053h.017l-.336.485h-.012l-.133.198h-.864c-.11.02-.21.044-.275.056zm1.527 4.637l-.412-.02-.46-.057.003.791.364.033.392.028.113-.775zm.8-3.78a32.292 32.292 0 01-1.572-.158l.02 3.34.72.057.831-3.24z" fill="#fff"/></svg>