<svg width="44" height="30" viewBox="0 0 44 30" fill="none" xmlns="http://www.w3.org/2000/svg"><path fill-rule="evenodd" clip-rule="evenodd" d="M41.782 27.11c-1.184 2.105-2.468 2.492-5.084 2.64-2.612.176-9.183.25-14.874.25-5.703 0-12.276-.074-14.886-.248-2.61-.15-3.897-.535-5.092-2.643C.627 25.006 0 21.384 0 15.01v-.023c0-6.35.627-9.999 1.846-12.08C3.041.802 4.326.42 6.936.243 9.547.09 16.12 0 21.823 0 27.515 0 34.086.09 36.7.24c2.615.177 3.9.56 5.084 2.665 1.23 2.08 1.851 5.73 1.851 12.079v.021c0 6.38-.622 10.001-1.854 12.104z" fill="#F44336"/><path fill-rule="evenodd" clip-rule="evenodd" d="M16.363 6.818v16.364L30 15 16.363 6.818z" fill="#FAFAFA"/></svg>