<svg xmlns="http://www.w3.org/2000/svg" width="564" height="351" viewBox="0 0 564 351"><g data-name="Group 5354"><text data-name="Lowest Engagement" transform="translate(129 345)" fill="#4d4f5c" font-size="14" font-family="Heebo-Regular, Heebo" opacity=".7"><tspan x="-127.237" y="0">Lowest Engagement</tspan></text><text data-name="Highest Engagement" transform="translate(557 345)" fill="#4d4f5c" font-size="14" font-family="Heebo-Regular, Heebo" opacity=".7"><tspan x="-130.149" y="0">Highest Engagement</tspan></text><g data-name="Group 567"><path data-name="Rectangle 984" fill="#e1e3f5" opacity=".26" d="M2 0h22v34H2z"/><path data-name="Rectangle 985" fill="#e1e3f5" d="M2 139h22v34H2z"/><path data-name="Rectangle 986" fill="#f7f8fd" d="M2 69h22v34H2z"/><path data-name="Rectangle 987" fill="#f7f8fd" d="M2 208h22v34H2z"/><path data-name="Rectangle 988" fill="#f7f8fd" d="M2 35h22v33H2z"/><path data-name="Rectangle 989" fill="#e1e3f5" d="M2 174h22v33H2z"/><path data-name="Rectangle 990" fill="#e1e3f5" d="M2 104h22v34H2z"/><path data-name="Rectangle 991" fill="#e1e3f5" opacity=".26" d="M25 0h23v34H25z"/><path data-name="Rectangle 992" fill="#e1e3f5" d="M25 139h23v34H25z"/><path data-name="Rectangle 993" fill="#f7f8fd" d="M25 69h23v34H25z"/><path data-name="Rectangle 994" fill="#f7f8fd" d="M25 208h23v34H25z"/><path data-name="Rectangle 995" fill="#f7f8fd" d="M25 35h23v33H25z"/><path data-name="Rectangle 996" fill="#e1e3f5" d="M25 174h23v33H25z"/><path data-name="Rectangle 997" fill="#e1e3f5" d="M25 104h23v34H25z"/><path data-name="Rectangle 970" fill="#e1e3f5" opacity=".26" d="M49 0h22v34H49z"/><path data-name="Rectangle 971" fill="#e1e3f5" d="M49 139h22v34H49z"/><path data-name="Rectangle 972" fill="#f7f8fd" d="M49 69h22v34H49z"/><path data-name="Rectangle 973" fill="#e1e3f5" d="M49 208h22v34H49z"/><path data-name="Rectangle 974" fill="#f7f8fd" d="M49 35h22v33H49z"/><path data-name="Rectangle 975" fill="#e1e3f5" d="M49 174h22v33H49z"/><path data-name="Rectangle 976" fill="#e1e3f5" d="M49 104h22v34H49z"/><path data-name="Rectangle 977" fill="#e1e3f5" opacity=".26" d="M72 0h23v34H72z"/><path data-name="Rectangle 978" fill="#e1e3f5" d="M72 139h23v34H72z"/><path data-name="Rectangle 979" fill="#f7f8fd" d="M72 69h23v34H72z"/><path data-name="Rectangle 980" fill="#e1e3f5" d="M72 208h23v34H72z"/><path data-name="Rectangle 981" fill="#e1e3f5" d="M72 35h23v33H72z"/><path data-name="Rectangle 982" fill="#e1e3f5" d="M72 174h23v33H72z"/><path data-name="Rectangle 983" fill="#e1e3f5" d="M72 104h23v34H72z"/><path data-name="Rectangle 962" fill="#e1e3f5" d="M96 0h22v34H96z"/><path data-name="Rectangle 963" fill="#e1e3f5" d="M96 139h22v34H96z"/><path data-name="Rectangle 964" fill="#e1e3f5" d="M96 69h22v34H96z"/><path data-name="Rectangle 965" fill="#e1e3f5" d="M96 208h22v34H96z"/><path data-name="Rectangle 966" fill="#e1e3f5" d="M96 35h22v33H96z"/><path data-name="Rectangle 967" fill="#e1e3f5" d="M96 174h22v33H96z"/><path data-name="Rectangle 968" fill="#e1e3f5" d="M96 104h22v34H96z"/><path data-name="Rectangle 955" fill="#e1e3f5" d="M119 0h23v34h-23z"/><path data-name="Rectangle 956" fill="#e1e3f5" d="M119 139h23v34h-23z"/><path data-name="Rectangle 957" fill="#e1e3f5" d="M119 69h23v34h-23z"/><path data-name="Rectangle 958" fill="#e1e3f5" d="M119 208h23v34h-23z"/><path data-name="Rectangle 959" fill="#e1e3f5" d="M119 35h23v33h-23z"/><path data-name="Rectangle 960" fill="#e1e3f5" d="M119 174h23v33h-23z"/><path data-name="Rectangle 961" fill="#e1e3f5" d="M119 104h23v34h-23z"/><path data-name="Rectangle 941" fill="#e1e3f5" d="M144 0h22v34h-22z"/><path data-name="Rectangle 942" fill="#a6acdf" d="M144 139h22v34h-22z"/><path data-name="Rectangle 943" fill="#e1e3f5" d="M144 69h22v34h-22z"/><path data-name="Rectangle 944" fill="#e1e3f5" d="M144 208h22v34h-22z"/><path data-name="Rectangle 945" fill="#e1e3f5" d="M144 35h22v33h-22z"/><path data-name="Rectangle 946" fill="#a6acdf" d="M144 174h22v33h-22z"/><path data-name="Rectangle 947" fill="#a6acdf" d="M144 104h22v34h-22z"/><path data-name="Rectangle 948" fill="#e1e3f5" d="M167 0h23v34h-23z"/><path data-name="Rectangle 949" fill="#a6acdf" d="M167 139h23v34h-23z"/><path data-name="Rectangle 950" fill="#e1e3f5" d="M167 69h23v34h-23z"/><path data-name="Rectangle 951" fill="#a6acdf" d="M167 208h23v34h-23z"/><path data-name="Rectangle 952" fill="#e1e3f5" d="M167 35h23v33h-23z"/><path data-name="Rectangle 953" fill="#a6acdf" d="M167 174h23v33h-23z"/><path data-name="Rectangle 954" fill="#a6acdf" d="M167 104h23v34h-23z"/><path data-name="Rectangle 931" fill="#e1e3f5" d="M191 0h22v34h-22z"/><path data-name="Rectangle 932" fill="#a6acdf" d="M191 139h22v34h-22z"/><path data-name="Rectangle 933" fill="#e1e3f5" d="M191 69h22v34h-22z"/><path data-name="Rectangle 934" fill="#a6acdf" d="M191 208h22v34h-22z"/><path data-name="Rectangle 935" fill="#a6acdf" d="M191 35h22v33h-22z"/><path data-name="Rectangle 936" fill="#a6acdf" d="M191 174h22v33h-22z"/><path data-name="Rectangle 937" fill="#a6acdf" d="M191 104h22v34h-22z"/><path data-name="Rectangle 917" fill="#a6acdf" d="M214 0h23v34h-23z"/><path data-name="Rectangle 918" fill="#a6acdf" d="M214 139h23v34h-23z"/><path data-name="Rectangle 919" fill="#a6acdf" d="M214 69h23v34h-23z"/><path data-name="Rectangle 920" fill="#a6acdf" d="M214 208h23v34h-23z"/><path data-name="Rectangle 921" fill="#a6acdf" d="M214 35h23v33h-23z"/><path data-name="Rectangle 922" fill="#a6acdf" d="M214 174h23v33h-23z"/><path data-name="Rectangle 923" fill="#a6acdf" d="M214 104h23v34h-23z"/><path data-name="Rectangle 924" fill="#a6acdf" d="M238 0h22v34h-22z"/><path data-name="Rectangle 925" fill="#a6acdf" d="M238 139h22v34h-22z"/><path data-name="Rectangle 926" fill="#a6acdf" d="M238 69h22v34h-22z"/><path data-name="Rectangle 927" fill="#a6acdf" d="M238 208h22v34h-22z"/><path data-name="Rectangle 928" fill="#a6acdf" d="M238 35h22v33h-22z"/><path data-name="Rectangle 929" fill="#a6acdf" d="M238 174h22v33h-22z"/><path data-name="Rectangle 930" fill="#a6acdf" d="M238 104h22v34h-22z"/><path data-name="Rectangle 903" fill="#8890d4" d="M261 0h22v34h-22z"/><path data-name="Rectangle 904" fill="#a6acdf" d="M261 139h22v34h-22z"/><path data-name="Rectangle 905" fill="#6b75ca" d="M261 69h22v34h-22z"/><path data-name="Rectangle 906" fill="#a6acdf" d="M261 208h22v34h-22z"/><path data-name="Rectangle 907" fill="#a6acdf" d="M261 35h22v33h-22z"/><path data-name="Rectangle 908" fill="#6b75ca" d="M261 174h22v33h-22z"/><path data-name="Rectangle 909" fill="#a6acdf" d="M261 104h22v34h-22z"/><path data-name="Rectangle 910" fill="#8890d4" d="M284 0h22v34h-22z"/><path data-name="Rectangle 911" fill="#a6acdf" d="M284 139h22v34h-22z"/><path data-name="Rectangle 912" fill="#6b75ca" d="M284 69h22v34h-22z"/><path data-name="Rectangle 913" fill="#6b75ca" d="M284 208h22v34h-22z"/><path data-name="Rectangle 914" fill="#6b75ca" d="M284 35h22v33h-22z"/><path data-name="Rectangle 915" fill="#6b75ca" d="M284 174h22v33h-22z"/><path data-name="Rectangle 916" fill="#6b75ca" d="M284 104h22v34h-22z"/><path data-name="Rectangle 896" fill="#8890d4" d="M307 0h22v34h-22z"/><path data-name="Rectangle 897" fill="#6b75ca" d="M307 139h22v34h-22z"/><path data-name="Rectangle 898" fill="#6b75ca" d="M307 69h22v34h-22z"/><path data-name="Rectangle 899" fill="#6b75ca" d="M307 208h22v34h-22z"/><path data-name="Rectangle 900" fill="#6b75ca" d="M307 35h22v33h-22z"/><path data-name="Rectangle 901" fill="#6b75ca" d="M307 174h22v33h-22z"/><path data-name="Rectangle 902" fill="#6b75ca" d="M307 104h22v34h-22z"/><path data-name="Rectangle 882" fill="#6b75ca" d="M330 0h23v34h-23z"/><path data-name="Rectangle 883" fill="#6b75ca" d="M330 139h23v34h-23z"/><path data-name="Rectangle 884" fill="#6b75ca" d="M330 69h23v34h-23z"/><path data-name="Rectangle 885" fill="#6b75ca" d="M330 208h23v34h-23z"/><path data-name="Rectangle 886" fill="#6b75ca" d="M330 35h23v33h-23z"/><path data-name="Rectangle 887" fill="#6b75ca" d="M330 174h23v33h-23z"/><path data-name="Rectangle 888" fill="#6b75ca" d="M330 104h23v34h-23z"/><path data-name="Rectangle 889" fill="#6b75ca" d="M354 0h22v34h-22z"/><path data-name="Rectangle 890" fill="#6b75ca" d="M354 139h22v34h-22z"/><path data-name="Rectangle 891" fill="#a6acdf" d="M354 69h22v34h-22z"/><path data-name="Rectangle 892" fill="#6b75ca" d="M354 208h22v34h-22z"/><path data-name="Rectangle 893" fill="#6b75ca" d="M354 35h22v33h-22z"/><path data-name="Rectangle 894" fill="#6b75ca" d="M354 174h22v33h-22z"/><path data-name="Rectangle 895" fill="#a6acdf" d="M354 104h22v34h-22z"/><path data-name="Rectangle 868" fill="#6b75ca" d="M377 0h23v34h-23z"/><path data-name="Rectangle 869" fill="#6b75ca" d="M377 139h23v34h-23z"/><path data-name="Rectangle 870" fill="#a6acdf" d="M377 69h23v34h-23z"/><path data-name="Rectangle 871" fill="#6b75ca" d="M377 208h23v34h-23z"/><path data-name="Rectangle 872" fill="#6b75ca" d="M377 35h23v33h-23z"/><path data-name="Rectangle 873" fill="#6b75ca" d="M377 174h23v33h-23z"/><path data-name="Rectangle 874" fill="#a6acdf" d="M377 104h23v34h-23z"/><path data-name="Rectangle 875" fill="#6b75ca" d="M401 0h22v34h-22z"/><path data-name="Rectangle 876" fill="#6b75ca" d="M401 139h22v34h-22z"/><path data-name="Rectangle 877" fill="#e1e3f5" d="M401 69h22v34h-22z"/><path data-name="Rectangle 878" fill="#6b75ca" d="M401 208h22v34h-22z"/><path data-name="Rectangle 879" fill="#6b75ca" d="M401 35h22v33h-22z"/><path data-name="Rectangle 880" fill="#a6acdf" d="M401 174h22v33h-22z"/><path data-name="Rectangle 881" fill="#a6acdf" d="M401 104h22v34h-22z"/><path data-name="Rectangle 850" fill="#8890d4" d="M424 0h23v34h-23z"/><path data-name="Rectangle 851" fill="#a6acdf" d="M424 139h23v34h-23z"/><path data-name="Rectangle 852" fill="#e1e3f5" d="M424 69h23v34h-23z"/><path data-name="Rectangle 853" fill="#a6acdf" d="M424 208h23v34h-23z"/><path data-name="Rectangle 854" fill="#a6acdf" d="M424 35h23v33h-23z"/><path data-name="Rectangle 855" fill="#a6acdf" d="M424 174h23v33h-23z"/><path data-name="Rectangle 856" fill="#e1e3f5" d="M424 104h23v34h-23z"/><path data-name="Rectangle 857" fill="#8890d4" d="M448 0h22v34h-22z"/><path data-name="Rectangle 858" fill="#a6acdf" d="M448 139h22v34h-22z"/><path data-name="Rectangle 859" fill="#e1e3f5" d="M448 69h22v34h-22z"/><path data-name="Rectangle 860" fill="#a6acdf" d="M448 208h22v34h-22z"/><path data-name="Rectangle 861" fill="#a6acdf" d="M448 35h22v33h-22z"/><path data-name="Rectangle 862" fill="#a6acdf" d="M448 174h22v33h-22z"/><path data-name="Rectangle 863" fill="#e1e3f5" d="M448 104h22v34h-22z"/><path data-name="Rectangle 844" fill="#8890d4" d="M471 0h23v34h-23z"/><path data-name="Rectangle 845" fill="#a6acdf" d="M471 139h23v34h-23z"/><path data-name="Rectangle 846" fill="#e1e3f5" d="M471 69h23v34h-23z"/><path data-name="Rectangle 864" fill="#a6acdf" d="M471 208h23v34h-23z"/><path data-name="Rectangle 847" fill="#e1e3f5" d="M471 35h23v33h-23z"/><path data-name="Rectangle 848" fill="#a6acdf" d="M471 174h23v33h-23z"/><path data-name="Rectangle 849" fill="#e1e3f5" d="M471 104h23v34h-23z"/><path data-name="Rectangle 836" fill="#a6acdf" d="M495 0h22v34h-22z"/><path data-name="Rectangle 837" fill="#a6acdf" d="M495 139h22v34h-22z"/><path data-name="Rectangle 838" fill="#f7f8fd" d="M495 69h22v34h-22z"/><path data-name="Rectangle 865" fill="#e1e3f5" d="M495 208h22v34h-22z"/><path data-name="Rectangle 839" fill="#e1e3f5" d="M495 35h22v33h-22z"/><path data-name="Rectangle 840" fill="#a6acdf" d="M495 174h22v33h-22z"/><path data-name="Rectangle 841" fill="#f7f8fd" d="M495 104h22v34h-22z"/><path data-name="Rectangle 826" fill="#e1e3f5" d="M518 0h23v34h-23z"/><path data-name="Rectangle 827" fill="#a6acdf" d="M518 139h23v34h-23z"/><path data-name="Rectangle 828" fill="#f7f8fd" d="M518 69h23v34h-23z"/><path data-name="Rectangle 866" fill="#e1e3f5" d="M518 208h23v34h-23z"/><path data-name="Rectangle 829" fill="#f7f8fd" d="M518 35h23v33h-23z"/><path data-name="Rectangle 842" fill="#a6acdf" d="M518 174h23v33h-23z"/><path data-name="Rectangle 830" fill="#f7f8fd" d="M518 104h23v34h-23z"/><path data-name="Rectangle 831" fill="#e1e3f5" opacity=".26" d="M542 0h22v34h-22z"/><path data-name="Rectangle 832" fill="#e1e3f5" d="M542 139h22v34h-22z"/><path data-name="Rectangle 833" fill="#f7f8fd" d="M542 69h22v34h-22z"/><path data-name="Rectangle 867" fill="#e1e3f5" d="M542 208h22v34h-22z"/><path data-name="Rectangle 834" fill="#f7f8fd" d="M542 35h22v33h-22z"/><path data-name="Rectangle 843" fill="#e1e3f5" d="M542 174h22v33h-22z"/><path data-name="Rectangle 835" fill="#f7f8fd" d="M542 104h22v34h-22z"/></g><g data-name="Group 568"><text data-name="12" transform="translate(7 262)" fill="#4d4f5c" font-size="13" font-family="Heebo-Regular, Heebo" opacity=".7"><tspan x="0" y="0">12</tspan></text><text data-name="1" transform="translate(33 262)" fill="#4d4f5c" font-size="13" font-family="Heebo-Regular, Heebo" opacity=".7"><tspan x="0" y="0">1</tspan></text><text data-name="1" transform="translate(316 262)" fill="#4d4f5c" font-size="13" font-family="Heebo-Regular, Heebo" opacity=".7"><tspan x="0" y="0">1</tspan></text><text data-name="2" transform="translate(56 262)" fill="#4d4f5c" font-size="13" font-family="Heebo-Regular, Heebo" opacity=".7"><tspan x="0" y="0">2</tspan></text><text data-name="2" transform="translate(340 262)" fill="#4d4f5c" font-size="13" font-family="Heebo-Regular, Heebo" opacity=".7"><tspan x="0" y="0">2</tspan></text><text data-name="3" transform="translate(80 262)" fill="#4d4f5c" font-size="13" font-family="Heebo-Regular, Heebo" opacity=".7"><tspan x="0" y="0">3</tspan></text><text data-name="3" transform="translate(361 262)" fill="#4d4f5c" font-size="13" font-family="Heebo-Regular, Heebo" opacity=".7"><tspan x="0" y="0">3</tspan></text><text data-name="4" transform="translate(101 262)" fill="#4d4f5c" font-size="13" font-family="Heebo-Regular, Heebo" opacity=".7"><tspan x="0" y="0">4</tspan></text><text data-name="4" transform="translate(385 262)" fill="#4d4f5c" font-size="13" font-family="Heebo-Regular, Heebo" opacity=".7"><tspan x="0" y="0">4</tspan></text><text data-name="5" transform="translate(126 262)" fill="#4d4f5c" font-size="13" font-family="Heebo-Regular, Heebo" opacity=".7"><tspan x="0" y="0">5</tspan></text><text data-name="5" transform="translate(409 262)" fill="#4d4f5c" font-size="13" font-family="Heebo-Regular, Heebo" opacity=".7"><tspan x="0" y="0">5</tspan></text><text data-name="6" transform="translate(147 262)" fill="#4d4f5c" font-size="13" font-family="Heebo-Regular, Heebo" opacity=".7"><tspan x="0" y="0">6</tspan></text><text data-name="6" transform="translate(434 262)" fill="#4d4f5c" font-size="13" font-family="Heebo-Regular, Heebo" opacity=".7"><tspan x="0" y="0">6</tspan></text><text data-name="7" transform="translate(173 262)" fill="#4d4f5c" font-size="13" font-family="Heebo-Regular, Heebo" opacity=".7"><tspan x="0" y="0">7</tspan></text><text data-name="7" transform="translate(457 262)" fill="#4d4f5c" font-size="13" font-family="Heebo-Regular, Heebo" opacity=".7"><tspan x="0" y="0">7</tspan></text><text data-name="8" transform="translate(197 262)" fill="#4d4f5c" font-size="13" font-family="Heebo-Regular, Heebo" opacity=".7"><tspan x="0" y="0">8</tspan></text><text data-name="8" transform="translate(481 262)" fill="#4d4f5c" font-size="13" font-family="Heebo-Regular, Heebo" opacity=".7"><tspan x="0" y="0">8</tspan></text><text data-name="9" transform="translate(221 262)" fill="#4d4f5c" font-size="13" font-family="Heebo-Regular, Heebo" opacity=".7"><tspan x="0" y="0">9</tspan></text><text data-name="9" transform="translate(504 262)" fill="#4d4f5c" font-size="13" font-family="Heebo-Regular, Heebo" opacity=".7"><tspan x="0" y="0">9</tspan></text><text data-name="10" transform="translate(240 262)" fill="#4d4f5c" font-size="13" font-family="Heebo-Regular, Heebo" opacity=".7"><tspan x="0" y="0">10</tspan></text><text data-name="10" transform="translate(524 262)" fill="#4d4f5c" font-size="13" font-family="Heebo-Regular, Heebo" opacity=".7"><tspan x="0" y="0">10</tspan></text><text data-name="11" transform="translate(265 262)" fill="#4d4f5c" font-size="13" font-family="Heebo-Regular, Heebo" opacity=".7"><tspan x="0" y="0">11</tspan></text><text data-name="11" transform="translate(548 262)" fill="#4d4f5c" font-size="13" font-family="Heebo-Regular, Heebo" opacity=".7"><tspan x="0" y="0">11</tspan></text><text data-name="12" transform="translate(288 262)" fill="#4d4f5c" font-size="13" font-family="Heebo-Regular, Heebo" opacity=".7"><tspan x="0" y="0">12</tspan></text><text transform="translate(149 289)" fill="#4d4f5c" font-size="11" font-family="Heebo-Regular, Heebo" opacity=".7"><tspan x="-16.795" y="0">AM</tspan></text><text transform="translate(435 289)" fill="#4d4f5c" font-size="11" font-family="Heebo-Regular, Heebo" opacity=".7"><tspan x="-16.554" y="0">PM</tspan></text><path data-name="Line 237" fill="none" stroke="#afb1b7" stroke-linecap="round" opacity=".24" d="M14.5 285.5h100"/><path data-name="Line 239" fill="none" stroke="#afb1b7" stroke-linecap="round" opacity=".24" d="M295.5 285.5h100"/><path data-name="Line 238" fill="none" stroke="#afb1b7" stroke-linecap="round" opacity=".24" d="M172.5 285.5h100"/><path data-name="Line 240" fill="none" stroke="#afb1b7" stroke-linecap="round" opacity=".24" d="M455.5 285.5h100"/></g><path data-name="Rectangle 969" fill="#6b75ca" opacity=".2" d="M0 313h113v11H0z"/><path data-name="Rectangle 938" fill="#6b75ca" opacity=".4" d="M113 313h112v11H113z"/><path data-name="Rectangle 939" fill="#6b75ca" opacity=".6" d="M225 313h113v11H225z"/><path data-name="Path 487" d="M337.801 313h112.6v11.26h-112.6z" fill="#6b75ca" opacity=".8"/><path data-name="Rectangle 940" fill="#6b75ca" d="M450 313h113v11H450z"/></g></svg>