<svg width="538" height="48" viewBox="0 0 538 48" fill="none" xmlns="http://www.w3.org/2000/svg"><path d="M35.636 32.915H9.244a9.535 9.535 0 003.72 5.62 9.698 9.698 0 006.538 1.796 21.62 21.62 0 0011.35-3.517l3.615 6.33a26.788 26.788 0 01-15.356 4.781C5.954 47.935.017 39.045.017 29.715a17.383 17.383 0 011.172-7.092 17.515 17.515 0 013.946-6.03 17.71 17.71 0 016.056-3.956 17.846 17.846 0 017.15-1.216 16.822 16.822 0 016.917 1.062 16.697 16.697 0 015.867 3.78 16.506 16.506 0 013.785 5.832 16.38 16.38 0 011.037 6.857 25.935 25.935 0 01-.312 3.963zM9.244 26.203h17.873a8.408 8.408 0 00-2.965-5.324 8.558 8.558 0 00-5.81-1.962 9.064 9.064 0 00-5.906 1.981 8.91 8.91 0 00-3.192 5.305zm29.102-13.87h8.905v4.858a12.266 12.266 0 014.716-4.399 12.408 12.408 0 016.317-1.418c7.098 0 13.745 4.667 13.745 14.51v21.287h-9.1V28.312c0-5.626-3.033-8.63-7.42-8.63a8.17 8.17 0 00-3.285.69 8.104 8.104 0 00-2.722 1.95 8.012 8.012 0 00-1.69 2.874 7.96 7.96 0 00-.368 3.307v18.665h-9.098V12.333zM101 45.123a19.629 19.629 0 01-10.387 2.876c-8.066 0-12.262-4.73-12.262-13.742V19.879h-5.746v-7.544h5.813V0h9.036v12.335h11.613v7.544H87.449V33.69c0 4.026 1.547 6.135 4.963 6.135a11.964 11.964 0 005.872-1.79L101 45.123z" fill="#fff"/><path d="M134.768 32.913h-26.489a9.53 9.53 0 003.735 5.62 9.758 9.758 0 006.561 1.796 21.749 21.749 0 0011.397-3.517l3.628 6.33a26.956 26.956 0 01-15.415 4.78c-13.21 0-19.168-8.884-19.168-18.22a17.32 17.32 0 011.18-7.089 17.493 17.493 0 013.961-6.026 17.79 17.79 0 016.078-3.952 17.975 17.975 0 017.174-1.214 16.94 16.94 0 016.941 1.057c2.212.833 4.22 2.12 5.89 3.775a16.486 16.486 0 013.803 5.827 16.312 16.312 0 011.046 6.855 25.686 25.686 0 01-.32 3.984l-.002-.006zm-26.489-6.711h17.939a8.397 8.397 0 00-2.976-5.325 8.611 8.611 0 00-5.832-1.96 9.117 9.117 0 00-5.926 1.98 8.906 8.906 0 00-3.205 5.305zm86.803 3.516a17.551 17.551 0 011.302-7.187 17.753 17.753 0 014.119-6.065 18.044 18.044 0 016.242-3.918 18.226 18.226 0 017.312-1.111 17.791 17.791 0 019.688 2.452 17.467 17.467 0 016.773 7.264l-7.317 3.962a10.438 10.438 0 00-3.782-3.843 10.618 10.618 0 00-5.22-1.469 10.189 10.189 0 00-3.861.72 10.08 10.08 0 00-3.289 2.123 9.878 9.878 0 00-3.019 7 9.874 9.874 0 002.88 7.057 10.138 10.138 0 007.093 2.98 10.53 10.53 0 005.2-1.43 10.358 10.358 0 003.78-3.804l7.382 4.28a18.316 18.316 0 01-6.995 6.876 18.625 18.625 0 01-9.585 2.328 18.068 18.068 0 01-7.236-1.143 17.892 17.892 0 01-6.162-3.916 17.601 17.601 0 01-4.048-6.03 17.41 17.41 0 01-1.254-7.126h-.003zM259 45.123a19.759 19.759 0 01-10.425 2.876c-8.095 0-12.306-4.73-12.306-13.742v-14.38h-5.751v-7.542h5.829V0h9.066v12.335h11.658v7.543h-11.655v13.81c0 4.027 1.552 6.136 4.986 6.136a12.036 12.036 0 005.894-1.79L259 45.123zm-99.674-32.552c0 2.627-.035 5.062.019 7.495.019.813-.538.903-1.052 1.148a15.886 15.886 0 00-6.017 4.363 15.618 15.618 0 00-3.335 6.593 21.877 21.877 0 00-.449 4.42c-.065 3.5-.022 7.003-.022 10.578h-9.687c-.025-.374-.065-.73-.068-1.089 0-3.017.124-6.042-.04-9.052a16.176 16.176 0 011.816-8.108 29.436 29.436 0 016.907-9.646 29.878 29.878 0 0110.192-6.19c.506-.18 1.031-.308 1.731-.512h.005zm-20.468 12.866c0-5.382-.073-8.617-.073-14.133h9.545a3.204 3.204 0 01-.008 1.887 3.248 3.248 0 01-1.068 1.566 23.037 23.037 0 00-7.734 9.522c-.164.4-.336.796-.503 1.195l-.159-.037zm52.833-1.613a12.23 12.23 0 00-2.019-7.274 12.488 12.488 0 00-5.927-4.76 27.844 27.844 0 00-19.763.106c-.253.085-.609.401-.611.616-.043 2.415-.027 4.832-.027 7.358.864-.309 1.555-.593 2.271-.797a18.8 18.8 0 0112.67.313 6.068 6.068 0 013.457 2.866 5.934 5.934 0 01.506 4.428c-1.757-.34-3.498-.813-5.279-.98a30.443 30.443 0 00-5.514-.022c-5.818.531-11.034 3.264-11.252 10.47a10.05 10.05 0 001.022 5.966 10.233 10.233 0 004.274 4.337 15.027 15.027 0 007.977 1.386 14.967 14.967 0 007.527-2.95c.36-.316.742-.606 1.345-1.095V47.2h9.292c.047-.143.079-.29.097-.438 0-7.65.172-15.304-.046-22.948v.01zm-14.187 17.044c-6.055 1.37-9.623-.096-9.526-4.406.097-4.311 4.168-5.578 8.138-5.19a50.51 50.51 0 015.651.797s1.787 7.436-4.266 8.812l.003-.013zm92.118 6.131a5.5 5.5 0 10-.244-10.997 5.5 5.5 0 00.244 10.997zm32.978-.061c-5.18 0-9.362-1.623-12.67-4.869-3.307-3.308-4.93-7.49-4.93-12.545 0-5.118 1.685-9.3 4.993-12.608 3.37-3.308 7.676-4.93 12.919-4.93 6.553 0 12.545 3.432 15.104 8.675l-4.619 2.684c-2.309-3.808-6.179-6.242-10.485-6.242-3.557 0-6.491 1.186-8.8 3.558-2.309 2.372-3.495 5.305-3.495 8.863 0 3.495 1.123 6.428 3.37 8.8 2.309 2.31 5.18 3.495 8.613 3.495 2.122 0 4.182-.561 6.179-1.747 1.997-1.186 3.495-2.622 4.431-4.37l4.618 2.685c-2.746 5.055-8.737 8.55-15.228 8.55zm19.7-17.477c0-4.868 1.623-8.987 4.931-12.358 3.308-3.433 7.489-5.118 12.545-5.118 5.055 0 9.174 1.685 12.482 5.118 3.308 3.37 4.993 7.49 4.993 12.358 0 4.931-1.623 9.113-4.931 12.483-3.308 3.37-7.489 5.056-12.544 5.056-5.056 0-9.237-1.685-12.545-5.056-3.308-3.37-4.931-7.552-4.931-12.483zm29.334 0c0-3.37-1.124-6.241-3.433-8.675-2.309-2.435-5.118-3.683-8.425-3.683-3.308 0-6.117 1.248-8.426 3.683-2.309 2.434-3.433 5.305-3.433 8.675 0 3.433 1.124 6.367 3.433 8.8 2.309 2.435 5.118 3.621 8.426 3.621 3.307 0 6.116-1.186 8.425-3.62 2.309-2.434 3.433-5.368 3.433-8.8zm18.508 16.728h-5.555V12.797h5.43v4.743c2.122-3.745 5.68-5.617 10.61-5.617 3.745 0 6.865 1.185 9.424 3.62 2.559 2.434 3.807 5.867 3.807 10.423V46.19h-5.554v-18.6c0-6.741-3.558-10.486-8.738-10.486-2.808 0-5.055.999-6.803 2.934-1.747 1.934-2.621 4.494-2.621 7.552v18.6zm38.337 0h-5.555V12.797h5.43v4.743c2.122-3.745 5.679-5.617 10.61-5.617 3.744 0 6.865 1.185 9.424 3.62 2.559 2.434 3.807 5.867 3.807 10.423V46.19h-5.555v-18.6c0-6.741-3.557-10.486-8.737-10.486-2.809 0-5.056.999-6.803 2.934-1.748 1.934-2.621 4.494-2.621 7.552v18.6zm63.55-17.289c0 .437-.062 1.435-.187 2.933h-26.774c.936 5.805 4.743 9.924 11.983 9.924 3.994 0 8.612-1.56 11.795-3.807l2.372 4.306c-3.245 2.56-8.738 4.682-14.292 4.682-12.545 0-17.725-8.801-17.725-17.54 0-5.055 1.56-9.174 4.681-12.482 3.12-3.308 7.177-4.93 12.108-4.93 4.681 0 8.55 1.497 11.546 4.555 2.996 3.059 4.493 7.178 4.493 12.359zM455.99 17.04c-5.742 0-9.986 3.995-10.922 9.8h21.095c-.312-5.992-4.619-9.8-10.173-9.8zm38.78 29.898c-5.18 0-9.361-1.623-12.669-4.869-3.308-3.308-4.93-7.49-4.93-12.545 0-5.118 1.685-9.3 4.992-12.608 3.371-3.308 7.677-4.93 12.92-4.93 6.553 0 12.544 3.432 15.103 8.675l-4.618 2.684c-2.31-3.808-6.179-6.242-10.485-6.242-3.558 0-6.491 1.186-8.8 3.558-2.31 2.372-3.495 5.305-3.495 8.863 0 3.495 1.123 6.428 3.37 8.8 2.309 2.31 5.18 3.495 8.612 3.495 2.122 0 4.182-.561 6.179-1.747 1.997-1.186 3.495-2.622 4.431-4.37l4.619 2.685c-2.746 5.055-8.738 8.55-15.229 8.55zm41.046-7.053L538 44.19c-2.372 1.873-5.305 2.809-8.738 2.809-6.99 0-10.547-4.494-10.547-12.42V17.601h-5.929v-4.806h5.991V1h5.493v11.796h11.92v4.806h-11.92v17.54c0 4.493 1.809 6.74 5.492 6.74 1.934 0 3.932-.687 6.054-1.997z" fill="#fff"/></svg>