<svg width="87" height="45" viewBox="0 0 87 45" fill="none" xmlns="http://www.w3.org/2000/svg"><path d="M64.36 42.28V25.424c0-3.584 1.008-6.272 2.968-8.064 1.96-1.792 4.256-2.688 6.888-2.688 5.544 0 8.904 3.808 8.904 10.08V42.28h3.36V24.192c0-4.032-1.12-7.168-3.416-9.352-2.24-2.184-5.04-3.304-8.456-3.304-4.76 0-8.568 2.072-10.36 5.824V0H61v42.28h3.36zM36.597 29.146H9.481c1.127 4.376 4.376 7.691 10.541 7.691a22.068 22.068 0 0011.669-3.647l3.713 6.564a27.345 27.345 0 01-15.779 4.972C6.099 44.726 0 35.511 0 25.826 0 15.019 7.558 6.864 18.829 6.864c10.276 0 18.1 6.7 18.1 18.166a27.147 27.147 0 01-.332 4.116zM9.481 22.184h18.365a8.741 8.741 0 00-9.017-7.558 9.257 9.257 0 00-9.348 7.558zm38.212 21.842a5.494 5.494 0 005.5-5.632 5.518 5.518 0 00-5.5-5.568A5.56 5.56 0 0042 38.394a5.536 5.536 0 005.692 5.632z" fill="#fff"/></svg>