<svg width="34" height="35" viewBox="0 0 34 35" fill="none" xmlns="http://www.w3.org/2000/svg"><path d="M34 18.038c0-1.426-.116-2.467-.366-3.546H17.347v6.437h9.56c-.193 1.6-1.234 4.01-3.547 5.629l-.032.215 5.15 3.99.356.035C32.111 27.772 34 23.319 34 18.038" fill="#fff"/><path d="M17.347 35c4.684 0 8.616-1.542 11.488-4.202l-5.474-4.24c-1.465 1.021-3.431 1.734-6.014 1.734-4.587 0-8.48-3.026-9.869-7.208l-.203.017-5.355 4.144-.07.195C4.703 31.106 10.562 35 17.347 35z" fill="#fff"/><path d="M7.478 21.084a10.68 10.68 0 01-.578-3.431c0-1.195.212-2.351.56-3.43l-.01-.23-5.422-4.211-.178.084A17.363 17.363 0 000 17.653c0 2.795.675 5.435 1.85 7.787l5.628-4.356" fill="#fff"/><path d="M17.347 7.013c3.258 0 5.455 1.407 6.708 2.583l4.895-4.78C25.944 2.02 22.03.306 17.347.306c-6.785 0-12.644 3.893-15.497 9.56l5.61 4.356c1.406-4.183 5.3-7.209 9.887-7.209" fill="#fff"/></svg>