<svg width="20" height="20" viewBox="0 0 20 20" fill="none" xmlns="http://www.w3.org/2000/svg"><path d="M19.42 10.016c0-.806-.066-1.393-.208-2.003h-9.195v3.635h5.397c-.108.903-.696 2.264-2.002 3.178l-.018.121L16.3 17.2l.202.02c1.85-1.709 2.916-4.222 2.916-7.204z" fill="#4285F4"/><path d="M10.016 19.592c2.645 0 4.865-.87 6.486-2.372l-3.09-2.394c-.827.576-1.937.98-3.396.98-2.59 0-4.788-1.71-5.572-4.07l-.115.009-3.023 2.34-.04.11a9.787 9.787 0 008.75 5.397z" fill="#34A853"/><path d="M4.445 11.735a6.03 6.03 0 01-.327-1.937c0-.675.12-1.328.316-1.937l-.006-.13-3.061-2.377-.1.047A9.804 9.804 0 00.222 9.798c0 1.578.381 3.069 1.045 4.397l3.178-2.46z" fill="#FBBC05"/><path d="M10.016 3.79c1.84 0 3.08.795 3.787 1.46l2.765-2.7C14.87.972 12.66.004 10.016.004A9.787 9.787 0 001.266 5.4l3.167 2.46c.795-2.362 2.993-4.07 5.583-4.07z" fill="#EB4335"/></svg>