<svg width="29" height="18" viewBox="0 0 29 18" fill="none" xmlns="http://www.w3.org/2000/svg"><path d="M.35 17V.97h2.89v6.032c.59-.97 1.919-1.814 3.627-1.814 2.32 0 4.472 1.54 4.472 4.788V17H8.365v-6.222c0-1.856-.97-2.848-2.405-2.848-1.56 0-2.636 1.182-2.636 2.911v6.16H.35zm14.398.338c-.97 0-1.751-.739-1.751-1.73 0-.95.78-1.687 1.75-1.687.929 0 1.688.738 1.688 1.687 0 .991-.76 1.73-1.687 1.73zm8.902-.085c-3.354 0-5.759-2.446-5.759-5.885 0-3.48 2.468-5.927 5.885-5.927 2.215 0 4.177 1.118 5.041 2.911l-1.033.59c-.76-1.412-2.257-2.34-4.008-2.34-2.657 0-4.619 1.961-4.619 4.766 0 2.764 1.898 4.725 4.493 4.725 1.75 0 3.354-.991 4.07-2.341l1.034.633c-.907 1.75-2.91 2.868-5.104 2.868z" fill="#fff"/></svg>