<svg width="393" height="133" viewBox="0 0 393 133" fill="none" xmlns="http://www.w3.org/2000/svg"><path d="M104.876 116.979c-.432-.639-.082-1.339-.082-1.998-.021-13.078-.021-26.155-.021-39.233 0-2.06-.062-4.12-.144-6.158-.041-.742.227-.968.947-.968 3.172.02 6.323.02 9.495 0 .72 0 .947.227.926.968-.041 5.54-.02 11.06-.082 16.6 0 .74.165.967.906.967 4.922-.02 9.845-.02 14.767 0 .803 0 .988-.288.968-1.07-.083-5.397-.103-10.792-.206-16.188-.021-.948.185-1.298 1.174-1.277 2.698.062 5.396 0 8.093.041.536 0 1.071.144 1.607.206.247.02.391.103.391.37.021 3.564.041 7.127.041 10.71 0 10.812-.02 21.604.021 32.416 0 1.339-.33 2.616-.288 3.934.02.556-.309.741-.824.741-3.089 0-6.158-.02-9.247.021-.762 0-.906-.329-.886-1.03.144-5.828.041-11.656.021-17.485 0-1.091-.453-1.277-1.38-1.277-4.696.021-9.412.021-14.128-.02-.886 0-1.03.309-1.03 1.133.041 5.746 0 11.491.062 17.237.02 1.174-.247 1.524-1.483 1.483-3.11-.103-6.24-.02-9.371 0-.061-.082-.144-.103-.247-.123zm83.632-2.349c-1.894.679-3.542 1.647-5.437 1.977-7.476 1.277-14.293-1.504-17.217-9.247-3.501-9.289.391-20.1 10.586-23.787 3.336-1.215 6.755-1.483 10.338-1.133 3.522.35 6.961.906 10.36 1.874 1.977.556 1.997.556 1.997 2.513 0 9.164.042 18.35-.02 27.514-.021 2.781-.309 5.54-1.071 8.259-1.03 3.625-3.419 6.055-6.673 7.723-4.366 2.224-9.02 2.513-13.798 1.895-2.678-.33-5.19-1.174-7.662-2.183-.576-.247-1.133-.598-1.647-.968-.495-.33-.515-.742-.227-1.318 1.009-1.998 2.533-3.728 3.213-5.932.206-.659.885-.494 1.421-.226 1.256.597 2.41 1.4 3.81 1.689 2.43.535 4.819.926 7.332.205 2.492-.72 3.851-2.368 4.51-4.675.33-1.297.412-2.677.185-4.18zm.186-16.888c0-1.627-.041-3.254.02-4.881.021-.66-.123-.989-.803-1.153-2.863-.7-5.684-.845-8.403.535-3.439 1.75-5.169 7.023-3.81 10.998.824 2.368 2.019 4.242 4.614 4.881 1.482.37 3.006.206 4.386-.247 1.73-.577 3.09-1.689 3.604-3.625.556-2.163.33-4.346.392-6.508zm26.135-28.895c.288 1.091.124 2.203.103 3.316-.041 4.118.185 8.217-.144 12.336-.021.35-.206.824.185 1.05.392.227.721-.144 1.009-.37 4.572-3.481 9.618-3.77 14.787-1.792 3.049 1.174 4.984 3.645 6.076 6.755.844 2.368.989 4.798.968 7.29-.041 6.096-.021 12.172.041 18.268 0 .968-.432 1.709-1.647 1.524-2.513-.371-5.026-.103-7.518-.165-1.174-.02-1.606-.226-1.585-1.544.082-5.87.041-11.739.02-17.63 0-.72-.041-1.462-.206-2.162-.494-2.327-1.936-3.83-4.284-4.14-2.327-.308-4.489.145-5.972 2.266-1.05 1.503-1.648 3.09-1.648 4.963.042 5.623 0 11.224.042 16.847 0 1.05-.268 1.421-1.36 1.38-2.739-.083-5.478-.041-8.217 0-.741 0-1.03-.144-1.03-1.009a8620.35 8620.35 0 000-46.05c0-1.072.268-1.422 1.339-1.401 2.904.062 5.808.041 8.732.041.103.082.206.144.309.227zm122.089 12.996c11.018-.062 18.35 8.609 18.226 18.288-.123 10.112-7.599 17.918-17.979 18.083-11.101.164-18.7-8.506-18.535-18.433.164-9.803 7.393-17.835 18.288-17.938zm7.785 18.391v-1.38c.082-3.439-2.513-6.672-6.055-7.537-3.419-.845-7.085.865-8.568 4.016-1.112 2.348-1.482 4.695-.844 7.332 1.442 5.807 7.661 8.114 12.172 4.922 2.594-1.833 3.542-4.469 3.295-7.353zm-28.464.288c0 6.693-4.263 13.407-10.648 16.126-4.201 1.792-8.546 2.08-12.851.803-4.304-1.277-7.826-3.831-10.132-7.847-1.751-3.027-2.945-6.281-2.801-9.761.288-7.888 5.066-15.467 13.613-17.444 9-2.08 17.176 1.503 21.316 9.906.741 1.503 1.132 3.15 1.215 4.86.103 1.133-.33 2.286.288 3.357zm-10.153-.618c.123-.926-.103-2.018-.453-3.068-.968-2.945-2.904-5.005-5.973-5.5-3.11-.493-6.075.124-7.867 3.049-2.101 3.419-2.554 7.064-.494 10.689 1.524 2.677 3.851 4.077 7.002 3.954 3.069-.124 5.396-1.421 6.776-4.243.72-1.483 1.009-3.048 1.009-4.88zm-62.981.083c0-5.19.021-10.38-.02-15.55-.021-1.132.309-1.462 1.442-1.42 2.347.082 4.695.02 7.064.02 1.544 0 1.688.165 1.709 1.71 0 .453-.227 1.05.288 1.297.515.247.824-.33 1.133-.618 4.366-3.892 11.451-3.995 15.858-1.442 3.172 1.854 4.634 4.758 5.293 8.177.453 2.265.453 4.572.453 6.858 0 5.622 0 11.224.041 16.846 0 .865-.185 1.215-1.133 1.195a231.864 231.864 0 00-8.464-.021c-.968.021-1.195-.288-1.195-1.256.062-5.87.042-11.739.021-17.609 0-1.05-.123-2.142-.391-3.15-.824-3.008-3.522-3.79-6.158-3.378-3.831.597-5.478 4.201-5.499 7.434a876.358 876.358 0 00.021 16.456c.02 1.235-.309 1.606-1.545 1.544a106.316 106.316 0 00-7.702-.02c-1.01.02-1.216-.33-1.216-1.236.042-5.272.021-10.545.021-15.817 0-.02 0-.02-.021-.02zm115.97.02c0-5.272.021-10.544-.02-15.816 0-.865.164-1.195 1.091-1.174 2.472.062 4.964.02 7.435.04 1.627.022 1.751.166 1.751 1.772 0 .412-.206.989.164 1.195.433.247.721-.31 1.03-.556 2.883-2.266 6.096-3.46 9.824-3.213 4.798.309 8.444 2.348 10.565 6.755.989 2.06 1.236 4.325 1.277 6.549.082 6.776 0 13.551.02 20.327 0 .927-.164 1.215-1.173 1.195-2.74-.103-5.479-.062-8.218 0-.885.02-1.194-.248-1.174-1.174.083-5.149.124-10.277.144-15.426 0-1.38.042-2.76-.144-4.098-.535-3.893-3.089-5.314-6.487-4.716-3.625.617-5.52 3.13-5.52 6.837-.02 5.787-.041 11.574.021 17.361 0 .989-.268 1.236-1.194 1.216a223.004 223.004 0 00-8.341.02c-.865.021-1.071-.268-1.071-1.091.041-5.376.02-10.689.02-16.003z" fill="#4E4E4E"/><path d="M150.059 100.007c0-5.23.02-10.462-.021-15.693 0-.927.206-1.318 1.174-1.298 2.78.042 5.561.021 8.341 0 .803 0 1.03.31 1.03 1.071-.021 10.03 0 20.06 0 30.11 0 .803-.309 1.565-.268 2.389.041.7-.762.659-1.03.618-2.759-.412-5.519-.062-8.299-.144-.824-.021-.968-.35-.968-1.092.061-5.334.041-10.647.041-15.961z" fill="#4E4D4D"/><path d="M155.353 67.838c3.46.061 5.808 2.615 5.725 5.58-.082 3.193-2.595 5.396-6.055 5.458-2.821.062-5.725-2.698-5.705-5.354.042-3.275 2.843-5.87 6.035-5.684z" fill="#4E4E4E"/><path fill-rule="evenodd" clip-rule="evenodd" d="M81.558 57.452c-.477.003-.955.005-1.421-.096-2.41-.495-4.12-1.69-5.15-3.913-.164-.371-.164-.742-.164-1.133 0-1.042-.002-2.08-.004-3.12v-.007c-.005-2.08-.01-4.158.004-6.244 0-.21.022-.42.063-.627a3.25 3.25 0 00-.082.689 683.95 683.95 0 00-.005 6.243c.002 1.041.005 2.083.005 3.127v.101c-.002.338-.004.676.164 1.032 1.03 2.224 2.74 3.419 5.15 3.913.442.066.893.051 1.341.038l.1-.003zm.813.642c.502.06 1.014.121 1.473-.223.92.017 1.78-.254 2.643-.527.14-.044.28-.088.42-.13l.007.018c2.45-.639 4.634-1.771 6.487-3.543l.036-.034c1.2-1.16 1.205-1.165-.386-1.634-.74-.217-1.387-.607-2.034-.996-.578-.348-1.155-.696-1.797-.92-.565.49-.722 1.154-.88 1.826-.095.404-.19.81-.376 1.182-.107.206-.224.414-.343.624-.47.83-.964 1.7-.89 2.693-.08-.984.403-1.843.871-2.676.125-.222.249-.442.36-.661.186-.372.282-.778.377-1.183.158-.67.314-1.336.88-1.824-1.75-1.215-3.254-2.678-4.613-4.305l-.032-.035a13.573 13.573 0 00-.037-.04c-.302-.336-.615-.685-.425-1.213v.011c1.092-.37 2.08-.906 3.007-1.627 2.74-2.121 4.428-4.943 5.643-8.114.033-.082.082-.167.131-.253.137-.237.278-.483.096-.694-.18-.214-.48-.14-.76-.069a4.052 4.052 0 01-.208.048c-3.336.638-6.611.309-9.844-.639-.886-.247-1.174-.576-.31-1.318 1.38-1.194 2.37-2.656 3.07-4.366.69-1.695.7-3.45.709-5.207.006-1.125.012-2.25.197-3.36.123-.762-.392-.742-.886-.433-1.03.618-2.1 1.174-3.254 1.462l-.407.108c-1.986.525-3.98 1.053-6.08.552-.598-.145-.804-.412-.598-.824.175-.35.176-.706.177-1.06 0-.232.001-.463.05-.69.782-3.564-.474-8.074-2.554-11.246-.447.373-.7.864-.953 1.356-.098.189-.195.377-.303.56-.433.72-.906 1.359-1.565 1.853-2.266 1.668-4.86 2.369-7.58 2.76-.514.062-.74-.268-.658-.7.313-1.568.03-3.118-.247-4.63l-.042-.23c-.576-3.296-2.43-5.705-5.437-7.147-1.277-.618-1.359-.515-1.483.886a7.182 7.182 0 01-.267 1.503c-.907 2.863-2.019 5.56-4.943 7.002-.865.433-1.4.165-1.977-.494a37.873 37.873 0 00-4.964-4.82c-1.688-1.359-3.604-2.306-5.622-3.047-.494-.186-1.07-.35-.927.576.073.45.156.904.239 1.358.153.835.306 1.675.4 2.514.267 2.41.103 4.778-1.298 6.879-.556.803-1.174 1.091-2.142.474-1.015-.63-2.13-1.22-3.345-1.433l-.013-.05c-4.449-1.339-8.856-1.03-13.243.206-.078.02-.172.026-.269.03-.286.016-.6.033-.616.464-.016.384.244.482.513.583.092.035.185.07.27.117 3.212 1.772 4.674 4.634 5.045 8.176.014.113-.124.234-.266.359a2.135 2.135 0 00-.187.177c.107.122.22.24.335.36.502.522 1.009 1.05.942 1.905-.062.845.432 1.215 1.174 1.421 1.544.412 3.027.433 4.613.021.554-.143 1.027-.371 1.383-.677-.358.326-.844.569-1.423.718-1.565.412-3.068.391-4.613-.02-.741-.206-1.235-.577-1.174-1.422.066-.838-.419-1.348-.91-1.865a9.873 9.873 0 01-.367-.4c-1.282-.462-2.65-.44-3.974-.42-.27.004-.538.008-.804.008-3.439-.02-6.549 1.195-9.267 3.44-.906.761-.845.988.144 1.523 3.007 1.607 5.581 3.646 6.323 7.27.411 1.977.061 2.534-1.895 2.575-5.19.082-8.547 2.862-10.75 7.352-.29.577-.166 1.01.473.845.6-.163 1.179-.09 1.757-.017.373.047.746.094 1.126.078 2.43-.103 4.346 1.01 5.973 2.698.762.783.823 1.483.02 2.328a38.309 38.309 0 00-4.592 5.848c-1.05 1.627-1.669 3.44-2.183 5.273-.412 1.524-.021 1.812 1.544 1.4 3.501-.906 6.961-.865 10.4.247.618.206 1.133.495.66 1.277-1.668 2.698-2.657 5.643-3.048 8.753a21.422 21.422 0 00.04 5.622c.145 1.01.475 1.38 1.422.474.947-.906 2.06-1.689 3.171-2.389 1.936-1.236 3.975-2.162 6.364-1.977.721.041 1.112.103.845 1.03-.246.879-.308 1.82-.37 2.74l-.001.02c-.247 3.645.638 7.002 2.533 10.112.055.092.102.2.15.31.133.307.273.627.591.657.43.048.6-.296.77-.635.05-.101.1-.202.157-.291 1.75-2.678 3.687-5.17 6.611-6.673l.048-.024c1.6-.82 1.605-.823 2.115.992l.062.247c.926 3.748 2.76 7.002 5.519 9.72.659.66.989.742 1.174-.288.433-2.577 1.622-4.846 2.814-7.12l.337-.644c.803-1.544 2.1-2.43 3.542-3.233.66-.37 1.092-.247 1.421.453.558 1.153 1.301 2.189 2.047 3.228l.095.134.144.2c1.504 2.122 3.46 3.79 5.602 5.232.577.37 1.01.535.968-.474-.035-.951.076-1.917.186-2.873v-.001l.061-.544c.288-2.616 1.133-4.943 2.76-7.003.72-.906 1.277-1.07 2.327-.37 3.028 2.06 6.323 3.48 10.071 3.563 1.668.04 1.812-.248.968-1.71-1.606-2.76-2.327-5.725-2.286-8.918.02-.947.412-1.132 1.174-.947 1.542.376 3.103.315 4.646.255l.194-.008c2.574-.103 5.025-.803 7.393-1.791.824-.35.927-.721.124-1.298-1.566-1.112-2.925-2.471-4.243-3.892-1.38-1.463-2.245-3.213-2.76-5.15-.185-.761-.164-1.338.927-1.255.126.008.252.023.38.038z" fill="#EF6B27"/><path d="M214.83 68.847c-.103-.062-.206-.144-.309-.206.165-.041.268.02.309.206z" fill="#8F8E8D"/><path d="M104.875 116.979l.247.061c-.103.165-.185.124-.247-.061z" fill="#EDEFEE"/></svg>