<svg xmlns="http://www.w3.org/2000/svg" width="159.317" height="32.037" viewBox="0 0 159.317 32.037"><defs><style>.a{fill:#e70030}</style></defs><path class="a" d="M0 2.987a3 3 0 113.021 2.987A2.95 2.95 0 010 2.987zm.451 22.39v-17.6h5.043v17.6zm26.469-8.802c0 5.333-3.79 9.251-8.77 9.251a6.643 6.643 0 01-5.268-2.409v1.96H8V.931h5.043v8.577a6.774 6.774 0 015.107-2.184c4.979 0 8.77 3.951 8.77 9.251zm-5.139-.032a4.406 4.406 0 00-4.465-4.594 4.628 4.628 0 104.465 4.594zm24.025 1.735H32.859c.547 1.928 2.056 3.309 4.787 3.309a10.565 10.565 0 005.493-1.7l1.992 3.437a13.013 13.013 0 01-7.71 2.442c-6.584 0-9.637-4.433-9.637-9.219a8.889 8.889 0 019.284-9.219c5.043 0 8.9 3.244 8.9 8.833a15.764 15.764 0 01-.162 2.117zm-12.979-3.6h8.288a3.966 3.966 0 00-4.047-3.277 4.259 4.259 0 00-4.238 3.279z"/><path class="a" d="M57.307 25.377l-3.051-5.493-3.245 5.493h-5.75l5.686-8.93-5.043-8.673h5.75l2.7 5.139 2.955-5.139h5.654l-5.365 8.769 5.525 8.833zm6.072-2.312a2.81 2.81 0 015.621 0 2.81 2.81 0 11-5.621 0z"/><path d="M87.893 10.864a7.269 7.269 0 00-5.921-2.852 7.9 7.9 0 00-5.952 2.449 8.392 8.392 0 00-2.358 6.139 8.863 8.863 0 002.358 6.292 7.843 7.843 0 005.952 2.508 7.259 7.259 0 005.921-2.79V25h2.669V8.415h-2.669zm.217 5.828a6.352 6.352 0 01-1.643 4.4 5.454 5.454 0 01-4.216 1.769 5.454 5.454 0 01-4.216-1.767 6.425 6.425 0 01-1.581-4.371 6.316 6.316 0 011.581-4.371 5.375 5.375 0 014.216-1.8 5.375 5.375 0 014.216 1.8 6.2 6.2 0 011.643 4.34zm19.1-6.107a7.225 7.225 0 00-5.766-2.573 8.136 8.136 0 00-6.014 2.449 8.206 8.206 0 00-2.449 6.045 8.422 8.422 0 002.381 6.076 7.9 7.9 0 005.954 2.449 7.363 7.363 0 005.89-2.6v1.364a5.4 5.4 0 01-1.674 4.119 5.972 5.972 0 01-4.4 1.612 9.761 9.761 0 01-5.921-2.015l-1.333 2.2a12.057 12.057 0 007.254 2.325 8.662 8.662 0 006.417-2.356 8.505 8.505 0 002.413-6.385V8.415h-2.756zm-5.611-.062a5.471 5.471 0 014.154 1.7 5.892 5.892 0 011.674 4.278 5.965 5.965 0 01-1.674 4.309 5.471 5.471 0 01-4.154 1.7 5.586 5.586 0 01-4.185-1.7 6.019 6.019 0 01-1.652-4.304 6 6 0 011.643-4.278 5.492 5.492 0 014.19-1.705zm27.125 5.89a8.392 8.392 0 00-2.232-6.138 7.683 7.683 0 00-5.735-2.263 7.9 7.9 0 00-6.014 2.449 8.645 8.645 0 00-2.325 6.2c0 4.34 2.573 8.711 8.8 8.711a12.125 12.125 0 007.1-2.325l-1.179-2.139a10.877 10.877 0 01-5.859 1.892c-3.6 0-5.487-2.046-5.952-4.929h13.3c.061-.745.092-1.241.092-1.458zm-7.967-5.89a4.893 4.893 0 015.049 4.867h-10.478a5.435 5.435 0 015.425-4.867zM133.835 25v-9.238a5.417 5.417 0 011.3-3.751 4.339 4.339 0 013.379-1.457c2.573 0 4.34 1.86 4.34 5.208V25h2.759V14.956a6.768 6.768 0 00-1.891-5.177 6.505 6.505 0 00-4.681-1.8 5.582 5.582 0 00-5.27 2.79V8.413h-2.7V25zm24.4-3.131a5.758 5.758 0 01-3.007.992c-1.829 0-2.728-1.116-2.728-3.348V10.8h5.921V8.413h-5.924V2.554h-2.728v5.859h-2.976V10.8h2.945v8.432c0 3.939 1.767 6.168 5.239 6.168a6.807 6.807 0 004.34-1.4z" fill="#656565"/></svg>