<svg width="266" height="220" viewBox="0 0 266 220" fill="none" xmlns="http://www.w3.org/2000/svg"><path opacity=".4" d="M62.608 24.17H49.39a1.246 1.246 0 01-1.247-1.248 1.25 1.25 0 011.247-1.248h13.22a1.246 1.246 0 011.246 1.248 1.25 1.25 0 01-1.247 1.249z" fill="#E6E7E8"/><path d="M56.248 19.98c5.51 0 9.977-4.473 9.977-9.99 0-5.518-4.467-9.99-9.977-9.99-5.51 0-9.976 4.472-9.976 9.99 0 5.517 4.466 9.99 9.976 9.99z" fill="#FE4777"/><path d="M58.769 5.62c-1.497 0-2.71 1.437-2.71 1.437S54.844 5.62 53.347 5.62s-2.71 1.414-2.71 3.16c0 2.9 5.42 6.18 5.42 6.18s5.423-3.277 5.423-6.18c-.003-1.747-1.215-3.16-2.712-3.16z" fill="#fff"/><path d="M63.535 62.035l-58.483.075a4.898 4.898 0 01-3.466-1.434 4.91 4.91 0 01-1.438-3.469l-.02-21.691A4.912 4.912 0 013.15 30.98a4.896 4.896 0 011.875-.375l58.482-.075a4.896 4.896 0 014.53 3.025 4.91 4.91 0 01.375 1.877l.019 21.692a4.912 4.912 0 01-3.021 4.536 4.896 4.896 0 01-1.875.376z" fill="#E6E7E8"/><path d="M55.052 40.876l-27.483.048a.725.725 0 01-.727-.727.728.728 0 01.726-.728l27.483-.048a.726.726 0 01.001 1.455zm.004 4.254l-27.483.048a.725.725 0 01-.672-1.005.727.727 0 01.67-.45l27.484-.048a.727.727 0 010 1.455zm-21.167 8.53l-6.308.03a.726.726 0 01-.515-1.242.726.726 0 01.514-.213l6.308-.032a.725.725 0 01.672 1.006.729.729 0 01-.671.451z" fill="#fff"/><path d="M30.923 65.2h34.711a.723.723 0 01.672.448.727.727 0 01-.671 1.006H30.922a.725.725 0 01-.726-.727.729.729 0 01.727-.728zm34.715 5.542l-16.391.014a.727.727 0 110-1.455l16.39-.014a.724.724 0 01.727.727.728.728 0 01-.726.728z" fill="#E6E7E8"/><path d="M17.726 43.162a4.843 4.843 0 00-4.82-4.866 4.843 4.843 0 00-4.86 4.827 4.843 4.843 0 004.82 4.865 4.843 4.843 0 004.86-4.826z" fill="#F77257"/><path d="M107.4 65.634c6.814-6.823 6.814-17.884 0-24.706-6.813-6.823-17.86-6.823-24.674 0-6.814 6.822-6.814 17.883 0 24.706 6.814 6.822 17.861 6.822 24.674 0z" fill="#FC8964"/><path d="M78.522 69.195l3.235-7.405 7.396 3.239-10.631 4.166z" fill="#FC8964"/><path d="M103.761 55.928a2.265 2.265 0 00-1.043-4.405 2.264 2.264 0 001.043 4.405zm-5.736-1.337a2.265 2.265 0 00-1.23-2.955 2.26 2.26 0 00-2.952 1.232 2.265 2.265 0 001.23 2.955 2.26 2.26 0 002.952-1.232zm-7.44.24a2.265 2.265 0 00-.874-3.079 2.26 2.26 0 00-3.076.876 2.265 2.265 0 00.875 3.08 2.26 2.26 0 003.075-.877z" fill="#fff"/><path d="M167.228 66.73h-41.675a2.676 2.676 0 01-2.67-2.673V53.65a2.677 2.677 0 012.67-2.673h41.675a2.677 2.677 0 012.67 2.673v10.405a2.677 2.677 0 01-2.67 2.674zm-41.675-15.11a2.032 2.032 0 00-2.032 2.035v10.404a2.04 2.04 0 002.032 2.035h41.675a2.033 2.033 0 002.032-2.035V53.652a2.039 2.039 0 00-2.032-2.035l-41.675.004z" fill="#E6E7E8"/><path d="M163.168 56.256h-26.806a.347.347 0 01-.348-.349.347.347 0 01.348-.349h26.806a.348.348 0 110 .698zm0 2.041h-26.806a.347.347 0 01-.348-.349.347.347 0 01.348-.349h26.806a.348.348 0 110 .698zm-10.156 4.083h-16.649a.354.354 0 01-.247-.102.345.345 0 01-.102-.247.35.35 0 01.349-.349h16.649a.347.347 0 01.348.349.359.359 0 01-.026.134.349.349 0 01-.322.215z" fill="#E0DCDC"/><path d="M168.233 68.62h-16.649a.35.35 0 010-.699h16.649a.347.347 0 01.348.35.35.35 0 01-.348.348zm0 1.967h-7.862a.352.352 0 01-.247-.102.347.347 0 01-.102-.247.345.345 0 01.349-.349h7.862a.352.352 0 01.247.102.345.345 0 01.102.247.347.347 0 01-.349.349z" fill="#fff"/><path d="M131.609 57.688a2.32 2.32 0 10-4.583-.743 2.322 2.322 0 104.583.743z" fill="#F18D4F"/><path d="M135.198 23.897H91.069a3.104 3.104 0 01-3.102-3.106V9.773a3.112 3.112 0 013.102-3.106h44.129a3.11 3.11 0 013.102 3.106v11.018a3.11 3.11 0 01-3.102 3.106zM91.069 7.895a1.877 1.877 0 00-1.876 1.878v11.018a1.881 1.881 0 001.876 1.878h44.129a1.877 1.877 0 001.875-1.878V9.773a1.878 1.878 0 00-1.875-1.878H91.069z" fill="#E6E7E8"/><path d="M130.899 12.533h-28.384a.368.368 0 01-.261-.63.37.37 0 01.261-.109h28.384a.369.369 0 110 .739zm0 2.161h-28.384a.368.368 0 01-.261-.63.37.37 0 01.261-.108h28.384a.369.369 0 110 .738zm-10.754 4.322h-17.63a.368.368 0 01-.369-.37.37.37 0 01.369-.369h17.63a.37.37 0 010 .74z" fill="#E0DCDC"/><path d="M97.449 14.217a2.459 2.459 0 10-4.787-1.127 2.458 2.458 0 104.787 1.127z" fill="#408CDE"/><path d="M137.47 129.9l-1.978-3.747-15.388 7.443a3.875 3.875 0 002.586 7.222 3.877 3.877 0 001.506-.667L137.47 129.9zm-25.927 24.811l-21.13 61.877h-4.054l8.527-62.758 16.657.881z" fill="#FF8F6E"/><path d="M115.106 214.421h-4.164l-6.653-60.882h15.675l-4.858 60.882z" fill="#FF8F6E"/><path d="M88.748 214.548a2.59 2.59 0 011.837.762 2.614 2.614 0 01.76 1.84v1.949H86.15v-1.953a2.602 2.602 0 012.598-2.598z" fill="#382D3D"/><path d="M123.225 140.781a3.885 3.885 0 002.955-4.629l-5.254-23.913a3.9 3.9 0 00-1.7-2.439 3.878 3.878 0 00-5.359 1.182 3.885 3.885 0 00-.52 2.927l5.254 23.913a3.885 3.885 0 004.624 2.959z" fill="#FF8F6E"/><path d="M116.308 109.257a3.858 3.858 0 012.916.519 3.859 3.859 0 011.695 2.432l4.141 18.849-7.559 1.665-4.142-18.846a3.887 3.887 0 01.519-2.922 3.872 3.872 0 012.43-1.697z" fill="#F5DDDD"/><path d="M121.134 162.941l-27.744-.004-1.133-35.088-1.07-13.542a4.626 4.626 0 013.064-4.721l1.211-.425 4.971-1.754.638-.225s11.313.07 11.266 0l.673.129 2.317.448a6.73 6.73 0 013.904 2.31 6.754 6.754 0 011.556 4.265l.1 14.168.015 1.921.008 1.024.224 31.494z" fill="#F5DDDD"/><path d="M91.324 138.136a4.242 4.242 0 01-1.53-.615 4.24 4.24 0 01-1.825-2.674 4.238 4.238 0 01-.017-1.651l1.047-5.586 2.624-14.541a4.235 4.235 0 011.753-2.755 4.215 4.215 0 013.19-.683 4.217 4.217 0 012.726 1.795 4.233 4.233 0 01.636 3.204l-2.623 14.541-1.048 5.586a4.231 4.231 0 01-4.933 3.379z" fill="#FF8F6E"/><path d="M97.303 129.173l-8.305-1.561 2.623-14.541a4.242 4.242 0 011.753-2.755 4.216 4.216 0 013.19-.683 4.218 4.218 0 012.726 1.795 4.233 4.233 0 01.636 3.204l-2.623 14.541z" fill="#F5DDDD"/><path d="M121.928 219.099h-10.505l-.463-4.678h6.152a4.82 4.82 0 013.354 1.363 4.834 4.834 0 011.462 3.315z" fill="#382D3D"/><path d="M112.408 107.468s-1.501 1.341-5.716 1.341-5.717-1.341-5.717-1.341v-8.673h11.433v8.673z" fill="#FF8F6E"/><path d="M112.408 106.127v-5.258h-9.444s1.669 4.733 9.444 5.258z" fill="#382D3D"/><path d="M100.644 89.818v3.105h.332v8.317a13.663 13.663 0 009.474 2.719 5.462 5.462 0 003.498-1.779 5.474 5.474 0 001.405-3.668v-8.694a7.216 7.216 0 00-2.104-5.093 7.188 7.188 0 00-5.084-2.11h-.329a7.19 7.19 0 00-5.085 2.11 7.205 7.205 0 00-2.107 5.093z" fill="#FF8F6E"/><path d="M114.722 86.868a7.19 7.19 0 00-6.558-4.252h-.329a7.19 7.19 0 00-5.086 2.11 7.205 7.205 0 00-2.106 5.092v3.105h.332v1.609h2.409v-3.65h.861a1.96 1.96 0 001.959-1.961v-.02a2.032 2.032 0 012.027-2.031l6.491-.002z" fill="#AB777A"/><path d="M113.692 94.956l.013.424a1.44 1.44 0 01-.407 1.057 1.447 1.447 0 01-1.041.442v-.683a.763.763 0 00.715-.49.756.756 0 00.051-.302l-.014-.445.683-.003z" fill="#CF5E4E"/><path d="M108.097 93.69a.84.84 0 101.267-.895.84.84 0 00-.447-.13.937.937 0 00-.82 1.025zm5.551-.028c0 .547.3.99.671.99.371 0 .67-.443.67-.99 0-.547-.3-.99-.67-.99-.37 0-.671.443-.671.99zm-5.188-2.118a3.36 3.36 0 011.25.048c.237.067.545-.192.608-.437a.675.675 0 00-.366-.713 4.197 4.197 0 00-1.614-.07 4.703 4.703 0 00-1.559.556c-.215.126.998.72 1.681.616zm5.202-.128c.074.01.15-.008.212-.051a.78.78 0 01.486-.12c.25.037 1.079-.257.936-.428a1.496 1.496 0 00-.834-.491 1.368 1.368 0 00-.912.225.543.543 0 00-.156.624.355.355 0 00.268.24z" fill="#382D3D"/><path d="M114.191 98.121c0 1.505-1.025 2.725-2.29 2.725-1.265 0-2.29-1.22-2.29-2.725h4.58z" fill="#fff"/><path d="M109.052 96.897h-1.298a1.642 1.642 0 01-1.639-1.642v-1.59a1.639 1.639 0 011.639-1.64h2.608a1.64 1.64 0 011.639 1.64v.279a2.959 2.959 0 01-2.949 2.953zm-1.298-4.39a1.16 1.16 0 00-1.159 1.16v1.59a1.16 1.16 0 001.159 1.16h1.298a2.476 2.476 0 002.468-2.472v-.279a1.16 1.16 0 00-1.158-1.16h-2.608z" fill="#382D3D"/><path d="M113.212 93.11a.961.961 0 00-1.684 0l.326.464c.366-.605.734-.537 1.032 0l.326-.464z" fill="#382D3D"/><path d="M115.822 96.897h-.494a2.588 2.588 0 01-2.585-2.589v-.83a1.453 1.453 0 011.451-1.453h1.628a1.452 1.452 0 011.452 1.453v1.966a1.452 1.452 0 01-1.452 1.453zm-1.626-4.39a.971.971 0 00-.97.972v.83a2.108 2.108 0 002.105 2.107h.493a.97.97 0 00.971-.971v-1.966a.977.977 0 00-.971-.972h-1.628zm-7.603 1.654l-5.621-.011.002-.962 5.621.011-.002.962z" fill="#382D3D"/><path d="M100.445 92.218a1.575 1.575 0 00-1.575 1.577v3.258a1.578 1.578 0 001.575 1.577h1.592v-4.817a1.593 1.593 0 00-1.592-1.595zm11.89 14.966l2.712.525s.504 8.349-7.365 8.408c-7.868.059-11.099-7.305-11.099-7.305l4.485-1.623 11.267-.005z" fill="#FF8F6E"/><path d="M105.982 169.111l1.66 15.767h11.143l2.352-21.937-13.491-.005-1.664 6.175z" fill="#756F6C"/><path d="M108.556 162.938l-5.653 22.133H90.476l2.913-22.135 15.167.002z" fill="#928A86"/><path d="M95.723 167.469h-2.01v-.674h2.01a2.852 2.852 0 002.85-2.854v-1.005h.672v1.005a3.525 3.525 0 01-3.522 3.528z" fill="#756F6C"/><path d="M106.021 171.896h1.304a2.84 2.84 0 002.003-.831 2.828 2.828 0 00.83-2.005v-6.124h-4.137v8.96z" fill="#928A86"/><path d="M97.554 152.748l-3.61 1.426-5.516-17.659a3.88 3.88 0 01.912-4.208 3.855 3.855 0 011.27-.818 3.857 3.857 0 013.214.171 3.863 3.863 0 011.973 2.545l1.757 18.543z" fill="#FF8F6E"/><path d="M96.504 160.732l-2.74-.873a2.192 2.192 0 01-1.426-2.757l1.07-3.365a2.873 2.873 0 013.612-1.871 2.199 2.199 0 011.282 1.083 2.192 2.192 0 01.142 1.674l-1.94 6.109z" fill="#FF8F6E"/><path d="M139.613 121.605c1.431-8.671-4.43-16.861-13.089-18.293-8.66-1.433-16.84 4.435-18.27 13.106-1.431 8.671 4.43 16.861 13.089 18.294 8.66 1.432 16.84-4.436 18.27-13.107z" fill="#FE4777"/><path d="M128.639 112.041c-2.567 0-4.649 2.46-4.649 2.46s-2.081-2.46-4.649-2.46-4.649 2.426-4.649 5.42c0 4.975 9.298 10.596 9.298 10.596s9.299-5.619 9.299-10.596c0-2.994-2.082-5.42-4.65-5.42z" fill="#fff"/><path d="M133.154 125.489l.022-.037a2.904 2.904 0 013.985-1.007l.303.181a3.072 3.072 0 011.06 4.21 2.948 2.948 0 01-4.045 1.022l-.265-.159a3.072 3.072 0 01-1.06-4.21z" fill="#FF8F6E"/><path d="M166.86 219.101h5.333v-4.341h-4.138l-1.195 4.341z" fill="#3B3040"/><path d="M168.814 215.055a3.39 3.39 0 00-2.407.999 3.413 3.413 0 00-.997 2.411v.633h6.809v-.633a3.408 3.408 0 00-3.405-3.41zm13.575 4.046h4.49l-1.112-4.341h-4.139l.761 4.341z" fill="#3B3040"/><path d="M186.296 215.055a3.408 3.408 0 013.405 3.41v.633h-6.81v-.633a3.406 3.406 0 013.405-3.41z" fill="#3B3040"/><path d="M172.194 214.757l-.281-55.867h-12.83a68.727 68.727 0 00.339 11.528l8.633 44.339h4.139z" fill="#FF8F6E"/><path d="M184.203 158.89h-14.172l11.598 55.867h4.138v-41.01a93.207 93.207 0 00-1.564-14.857z" fill="#FF8F6E"/><path d="M184.204 158.89l9.252 43.147h-35.533s.305-24.468.466-31.625c.131-5.794.694-11.522.694-11.522h25.121z" fill="#664F5A"/><path d="M170.745 170.942l4.163-3.823.345.377-4.164 3.822-.344-.376zm.033-2.795l4.088-3.944.354.368-4.088 3.944-.354-.368zm2.388-49.257c4.767 0 8.631-4.55 8.631-10.162 0-5.613-3.864-10.163-8.631-10.163s-8.631 4.55-8.631 10.163c0 5.612 3.864 10.162 8.631 10.162z" fill="#3B3040"/><path d="M171.645 107.336c4.492 0 8.134-3.878 8.134-8.661 0-4.784-3.642-8.661-8.134-8.661-4.493 0-8.135 3.877-8.135 8.66 0 4.784 3.642 8.662 8.135 8.662z" fill="#3B3040"/><path d="M150.742 138.605a3.12 3.12 0 01-.873-4.313l10.877-15.058a3.111 3.111 0 014.357-.579 3.114 3.114 0 011.327 1.976 3.114 3.114 0 01-.454 2.337l-10.878 15.058a3.11 3.11 0 01-4.356.579zm41.897-.482a3.12 3.12 0 00.873-4.313l-10.877-15.058a3.108 3.108 0 00-4.358-.576 3.113 3.113 0 00-.873 4.313l10.877 15.058a3.111 3.111 0 004.358.576z" fill="#91BAE0"/><path d="M160.468 149.824c1.723-6.562 1.757-10.65 1.123-13.873a24.83 24.83 0 00-1.105-3.808c-.311-.839-.639-1.662-.96-2.517l.54-8.003a5.044 5.044 0 011.497-3.586c.447-.437.97-.79 1.542-1.043l.624-.35.832-.47.943-.531 6.163-3.468 5.883 3.32 1.478.833.691.39.486.274a5.043 5.043 0 013.03 4.629l.515 7.555a31.293 31.293 0 01-1.06 3.411c-.444 1.207-.901 2.318-1.29 3.457-1.195 3.506-1.746 7.285.77 14.909a63.487 63.487 0 012.036 7.94h-25.123a46.964 46.964 0 011.385-9.069z" fill="#91BAE0"/><path d="M180.921 117.376c-1.112 2.311-4.801 4.007-9.178 4.007-4.427 0-8.152-1.738-9.212-4.093.184-.111.375-.21.572-.296l.624-.35.832-.47.942-.531 6.163-3.468 5.884 3.32 1.477.833.692.39.486.274c.249.109.489.237.718.384z" fill="#79A3C9"/><path d="M185.459 123.914v25.185a3.017 3.017 0 01-3.015 3.017h-20.452a3.015 3.015 0 01-3.015-3.017v-25.185h26.482z" fill="#91BAE0"/><path d="M171.266 136.838l4.087-3.944.355.367-4.088 3.945-.354-.368zm.95-3.477l4.088-3.944.354.367-4.087 3.945-.355-.368z" fill="#79A3C9"/><path d="M184.203 158.891a71.276 71.276 0 00-.754-3.454h-24.048a52.56 52.56 0 00-.318 3.454h25.12z" fill="#664F5A"/><path d="M179.027 116.326c-.582 1.987-3.592 3.5-7.215 3.5-3.715 0-6.784-1.592-7.251-3.654l.942-.531 6.163-3.468 5.884 3.32 1.477.833z" fill="#FF8F6E"/><path d="M174.825 115.17l-3.094 2.194-3.117-2.194a1.59 1.59 0 01-.437-1.129v-7.523h7.087v7.523c.008.42-.149.826-.439 1.129z" fill="#FF8F6E"/><path d="M168.179 109.535s2.523 3.809 3.554 3.809c1.031 0 3.533-3.854 3.533-3.854l-7.087.045z" fill="#3B3040"/><path d="M173.351 110.717a2.782 2.782 0 01-3.26 0s-4.161-1.899-4.161-4.816v-8.342a5.675 5.675 0 011.615-4.212 5.653 5.653 0 014.177-1.695 5.652 5.652 0 015.418 3.634c.277.724.403 1.498.37 2.273v8.621c0 2.43-4.159 4.537-4.159 4.537z" fill="#FF8F6E"/><path d="M167.055 100.18l3.239.557a.987.987 0 00-.939-1.031l-1.35-.01a1.464 1.464 0 00-.95.484zm9.431 0l-3.24.557a.99.99 0 01.939-1.031l1.351-.01c.366.036.705.21.95.484z" fill="#3B3040"/><path d="M165.419 101.167a1.05 1.05 0 00-1.051 1.052v2.039a1.055 1.055 0 001.051 1.052h.512v-4.01a1.056 1.056 0 00-.512-.133zm12.606 0a1.05 1.05 0 011.051 1.052v2.039a1.055 1.055 0 01-1.051 1.052h-.512v-4.01c.156-.088.333-.133.512-.133z" fill="#FF8F6E"/><path d="M171.311 105.089h.344a.66.66 0 00.662-.663v-.874h-.51v.729a.302.302 0 01-.087.211.3.3 0 01-.21.087h-.199v.51zm2.648 1.942a9.89 9.89 0 01-4.628 0 4.576 4.576 0 014.628 0zm-3.378 1.316c.382.107.775.167 1.171.177.345 0 .687-.06 1.012-.177a1.17 1.17 0 01-1.023.761 1.484 1.484 0 01-1.16-.761z" fill="#CF5E4E"/><path d="M167.776 102.542c0-.257.102-.503.283-.685a.97.97 0 011.367 0 .967.967 0 01.283.685h-1.933zm7.835 0a.971.971 0 00-.283-.685.97.97 0 00-1.367 0 .967.967 0 00-.283.685h1.933z" fill="#3B3040"/><path d="M173.166 107.194a1.944 1.944 0 01-1.49.69 1.953 1.953 0 01-1.489-.69h2.979z" fill="#fff"/><path d="M177.561 99.3c-2.887 0-.322-4.826-4.707-5.51a1.353 1.353 0 01-1.132-1.342v-.792h2.505a3.335 3.335 0 013.334 3.338v4.305z" fill="#3B3040"/><path d="M165.931 99.3c2.887 0 .323-4.826 4.707-5.51a1.353 1.353 0 001.132-1.342v-.792h-2.505a3.333 3.333 0 00-3.335 3.338l.001 4.305z" fill="#3B3040"/><path d="M172.317 150.466c7.798 0 14.12-6.33 14.12-14.139 0-7.809-6.322-14.139-14.12-14.139-7.799 0-14.121 6.33-14.121 14.139 0 7.809 6.322 14.139 14.121 14.139z" fill="#AF6BE9"/><path d="M166.828 124.682l-.384-1.839-5.976 1.282a1.748 1.748 0 00-1.346 2.072l.672 3.221 4.597-.985a3.17 3.17 0 002.437-3.751z" fill="#FF8F6E"/><path d="M159.909 125.228l2.619 2.809-7.164 10.864a3.434 3.434 0 01-4.998.397 3.443 3.443 0 01-.228-4.861l9.771-9.209zm16.643-1.029l.384-1.838 5.976 1.281a1.754 1.754 0 011.347 2.072l-.673 3.222-4.597-.987a3.168 3.168 0 01-2.437-3.75z" fill="#FF8F6E"/><path d="M183.475 124.746l-2.619 2.809 7.164 10.864a3.437 3.437 0 003.797 1.108 3.437 3.437 0 002.32-3.094 3.442 3.442 0 00-.891-2.477l-9.771-9.21z" fill="#FF8F6E"/><path d="M176.913 145.7l-4.034-4.039h4.034v4.039z" fill="#fff"/><path d="M172.217 144.189c4.268 0 7.728-3.464 7.728-7.738 0-4.274-3.46-7.738-7.728-7.738s-7.728 3.464-7.728 7.738c0 4.274 3.46 7.738 7.728 7.738z" fill="#fff"/><path d="M169.648 136.418a1.158 1.158 0 01-1.973.819 1.16 1.16 0 01.175-1.781 1.152 1.152 0 011.459.144c.217.217.339.511.339.818zm3.725 0a1.158 1.158 0 01-1.973.819 1.16 1.16 0 01.175-1.781 1.157 1.157 0 011.798.962zm3.725 0a1.158 1.158 0 01-1.973.819 1.16 1.16 0 01.175-1.781 1.157 1.157 0 011.798.962z" fill="#AF6BE9"/><path d="M71.631 130.148l-1.086.307a4.939 4.939 0 01.444-3.749 4.929 4.929 0 012.96-2.337l1.087-.307a4.94 4.94 0 01-1.692 5.213 4.91 4.91 0 01-1.713.873z" fill="#C96D58"/><path d="M70.887 130.305l-.978-3.726-13.544 4.428a2.73 2.73 0 00-1.358 4.194 2.727 2.727 0 003.283.903c9.94-4.277 12.597-5.799 12.597-5.799z" fill="#C96D58"/><path d="M37.805 213.736h6.107a127.092 127.092 0 004.086-12.327 183.23 183.23 0 002.465-9.628c1.24-5.432 2.54-11.686 3.54-18.567a157.991 157.991 0 001.714-22.664H41.381l-2.333 41.23-.488 8.603v.005l-.755 13.348z" fill="#76A688"/><path d="M44.284 213.732h-6.478l-.356 5.37h11.91c-.054-2.976-2.303-5.37-5.076-5.37z" fill="#382D3D"/><path d="M32.96 173.214c.821 5.178 2.345 10.451 3.504 16.696l.35 1.873a316.795 316.795 0 001.747 8.609c2.412 11.02 3.741 13.346 3.741 13.346h5.699v-63.184H36.122c-4.105 8.827-4.272 15.655-3.162 22.66z" fill="#91C9A5"/><path d="M48.701 213.732h-6.48l1.362 5.37h10.191c-.05-2.976-2.3-5.37-5.073-5.37z" fill="#524359"/><path d="M40.572 154.729h-3.764v-4.166h7.925a4.16 4.16 0 01-4.162 4.166z" fill="#76A688"/><path d="M48 164.997V150.55h3.41v11.031a3.411 3.411 0 01-3.41 3.416z" fill="#91C9A5"/><path d="M63.563 131.168l-6.603-12.329a2.945 2.945 0 00-1.937-1.146 2.929 2.929 0 00-2.18.56 2.94 2.94 0 00-1.145 1.939 2.948 2.948 0 00.56 2.183l6.55 11.891a2.961 2.961 0 002.069 1.086 2.949 2.949 0 002.21-.755l.256-.229c.966-.859.717-2.455.22-3.2zm-35.368 5.163l4.988-16.915a2.943 2.943 0 013.695-1.909 2.943 2.943 0 011.906 3.7L33.7 137.69a2.968 2.968 0 01-1.595 1.705 2.958 2.958 0 01-2.333.016l-.318-.132c-1.195-.492-1.483-2.081-1.26-2.948z" fill="#928A86"/><path d="M29.516 94.877l.17.23-.13.344.358.147.114.244v.308l.385.09.03.296.34.088-.076.387.34.07.027.33.016.361.193.204.36.013.141.255.302.055.172.224.173.238.36-.07.33-.059.166.254.192.224.306-.044.147.388.303-.052.25.125.235.2.312-.18.267.03.25.215.283-.164.27-.043.275.318.26-.273.24-.28.292.201.275.015.247-.135.298.08.156-.417.367.257.214-.2.29-.01.278-.054.22-.173.317-.003.17-.25.136-.284.1-.312.426.103.269-.113.04-.358.036-.336.494.084-.024-.374.125-.242.355-.08.14-.236-.159-.408.28-.149-.01-.301.425-.103-.113-.339.306-.178.117-.253-.312-.365.084-.25.437-.192-.11-.295-.306-.301.472-.236.091-.275-.436-.268.13-.272-.22-.246.302-.308.081-.294-.417-.188.256-.343-.114-.255-.504-.114.058-.302-.035-.275.149-.375-.183-.218-.35-.114-.242-.161.02-.337-.389-.041-.117-.24-.193-.178-.063-.305-.018-.37-.38.015-.07-.336-.437.128-.026-.422-.187-.212-.437.211-.166-.243-.086-.438-.452.35-.1-.467-.296.02-.302.072-.215-.229-.276.005-.274.014-.243-.187-.266-.063-.272.007-.27-.178-.27.266-.279-.158-.249.237-.27-.004-.27.01-.294-.082-.3-.058-.263.095-.227.19-.149.369-.267.046-.405-.222-.209.203-.25.125-.03.462-.45-.183-.014.438-.187.19-.291.072-.11.273-.3.08-.313.087-.027.334-.354.073.032.36.048.348-.116.234-.257.159-.195.201-.212.203-.096.256-.154.236.308.378-.18.222-.387.188-.124.26.498.347-.549.21.24.293-.04.268-.146.275.326.254.105.255.028.26-.214.305.284.213-.188.322.023.276z" fill="#382D3D"/><path d="M55.209 101.67c1.22-5.495-2.241-10.94-7.73-12.162-5.488-1.22-10.926 2.244-12.145 7.74-1.22 5.495 2.24 10.94 7.728 12.161 5.489 1.221 10.927-2.243 12.147-7.739z" fill="#382D3D"/><path d="M38.781 100.877a1.18 1.18 0 011.107.715c.061.143.094.297.097.452l.057 3.698-.869.014a1.501 1.501 0 01-1.523-1.479l-.035-2.195a1.19 1.19 0 01.714-1.108c.143-.062.297-.095.452-.097z" fill="#C96D58"/><path d="M48.921 116.456s.273 1.795-3.068 1.795a11.839 11.839 0 01-5.993-1.795v-11.613h9.061v11.613z" fill="#C96D58"/><path d="M48.925 114.204v-7.326h-8.278s1.463 6.593 8.278 7.326z" fill="#382D3D"/><path d="M46.574 92.808a6.734 6.734 0 00-4.733 2.05 6.752 6.752 0 00-1.9 4.802l.095 6.065a6.75 6.75 0 004.257 6.167 6.733 6.733 0 008.747-3.789 6.747 6.747 0 00.473-2.589l-.095-6.065a6.755 6.755 0 00-2.048-4.74 6.737 6.737 0 00-4.796-1.901z" fill="#C96D58"/><path d="M48.196 102.707c0 .62-.355 1.124-.794 1.124-.438 0-.794-.499-.794-1.124 0-.624.356-1.123.794-1.123.438 0 .794.503.794 1.123zm4.825-.088c0 .602-.258 1.09-.577 1.09-.319 0-.577-.488-.577-1.09 0-.603.259-1.09.577-1.09.319 0 .577.489.577 1.09z" fill="#2A212E"/><path d="M42.546 94.623l-2.674.484-.012 5.768 1.066 6.893 1.62-13.145z" fill="#382D3D"/><path d="M40.415 91.784l2.504-.039.064 4.12a2.509 2.509 0 01-2.464 2.547l-.104-6.628z" fill="#382D3D"/><path d="M58.945 128.427v15.051a3.117 3.117 0 01-3.113 3.117H35.53a2.569 2.569 0 01-1.823-.756 2.576 2.576 0 01-.754-1.824v-23.324a4.226 4.226 0 013.014-4.053l4.365-1.311 8.583-.402 5.175 2.109a5.895 5.895 0 013.564 4.386l1.292 7.007z" fill="#928A86"/><path d="M54.09 117.034c-.384 2.283-1.898 4.984-6.548 4.984-4.917 0-10.998-3.067-11.574-5.38l4.365-1.311 8.583-.402 5.174 2.109z" fill="#F5DDDD"/><path d="M38.05 116.015s2.478 3.831 9.672 3.637c4.473-.12 3.912-3.621 3.912-3.621l-2.721-1.11-8.656.286-2.207.808z" fill="#C96D58"/><path d="M35.656 146.599h20.062v3.952H35.656v-3.952z" fill="#382D3D"/><path d="M60.521 146.098c7.294 0 13.208-5.921 13.208-13.225 0-7.303-5.913-13.224-13.208-13.224-7.294 0-13.207 5.921-13.207 13.224 0 7.304 5.913 13.225 13.207 13.225z" fill="#4A77F7"/><path d="M45.878 141.25l-1.116-.183a4.94 4.94 0 011.986-3.208 4.924 4.924 0 013.671-.863l1.116.183a4.931 4.931 0 01-5.657 4.071z" fill="#C96D58"/><path d="M45.016 141.053l.685-3.79-14.142-1.728a2.721 2.721 0 00-2.963 2.009 2.732 2.732 0 002.552 3.426c10.816.336 13.868.083 13.868.083z" fill="#C96D58"/><path d="M50.267 104.586v.657a1.699 1.699 0 001.598-1.134h-.73a1.038 1.038 0 01-.868.477z" fill="#8A3E3E"/><path d="M44.96 99.83l3.477.525a1.017 1.017 0 00-1.015-1.014h-1.448a1.6 1.6 0 00-1.014.489zm8.464-.026l-1.72.547c0-.562.253-1.015.566-1.016h.81c.313 0 .344.47.344.47z" fill="#2A212E"/><path d="M50.6 108.674a2.756 2.756 0 01-2.31-.012c-.001 0 .97 2.048 2.31.012zm.994-1.249c.014-1.011-1.178-1.092-2.21-.977a5.524 5.524 0 00-2.373 1.061l3.353.257 1.23-.341z" fill="#8A3E3E"/><path d="M47.3 108.039a.577.577 0 01-.37-.972.578.578 0 01.384-.176l-.015 1.148z" fill="#8A3E3E"/><path d="M53.71 98.411s-3.257-6.042-6.843-2.701c-3.587 3.34-8.668 4.068-8.227 3.242.441-.827 2.011-8.299 8.293-7.733 6.282.566 7.07 5.183 6.778 7.192z" fill="#382D3D"/><path d="M68.138 133.52a7.632 7.632 0 01-4.702 7.044 7.61 7.61 0 01-8.3-1.653 7.63 7.63 0 011.155-11.733 7.608 7.608 0 014.231-1.285 7.575 7.575 0 015.395 2.225 7.596 7.596 0 012.221 5.402z" fill="#fff"/><path d="M61.577 134.488a2.777 2.777 0 001.51-3.622 2.77 2.77 0 00-3.619-1.512 2.776 2.776 0 002.108 5.134zm3.573 5.083a7.59 7.59 0 01-9.256 0 4.684 4.684 0 014.628-4.009 4.684 4.684 0 014.628 4.009zm168.185-88.686c0-11.207-9.073-20.292-20.265-20.292s-20.265 9.085-20.265 20.292c0 11.206 9.073 20.29 20.265 20.29s20.265-9.084 20.265-20.29z" fill="#4A77F7"/><path d="M219.564 43.575h-13.377a1.672 1.672 0 00-1.665 1.675l-.008 15.07 3.345-3.35h11.705a1.675 1.675 0 001.672-1.674V45.25a1.68 1.68 0 00-1.672-1.675zm-1.672 10.047h-10.033v-1.675h10.033v1.675zm0-2.512h-10.033v-1.674h10.033v1.674zm0-2.512h-10.033v-1.674h10.033v1.674z" fill="#fff"/><path d="M248.823 143.536a3.888 3.888 0 002.956-4.63l-5.255-23.912a3.884 3.884 0 00-4.624-2.96 3.882 3.882 0 00-2.955 4.63l5.254 23.912a3.878 3.878 0 004.624 2.96z" fill="#6F605B"/><path d="M243.3 214.446h-7.227l-6.616-60.555h16.472l-2.629 60.555z" fill="#E38E2D"/><path d="M236.672 155.058l-18.812 61.544-6.25.087 8.48-62.42 16.582.789z" fill="#FFB966"/><path d="M214.001 214.573a2.578 2.578 0 012.387 1.597c.13.314.197.65.197.99v1.939h-5.168v-1.94a2.59 2.59 0 011.596-2.39c.313-.13.649-.196.988-.196z" fill="#3B3040"/><path d="M217.092 114.873a4.592 4.592 0 013.047-4.695l1.205-.424 4.944-1.744.634-.224s11.252.069 11.205 0l4.864 1.908a5.491 5.491 0 013.482 5.14l-.261 48.408-29.259-.004.139-48.365z" fill="#6F605B"/><path d="M227.886 146.012h12.539a3.802 3.802 0 013.798 3.804v9.794h-16.337v-13.598z" fill="#5C4F4C"/><path d="M218.027 136.532a3.844 3.844 0 01-2.592-1.418 3.872 3.872 0 01-.831-2.838l.556-5.162 1.351-13.428a3.867 3.867 0 012.748-3.321 3.858 3.858 0 014.803 2.641c.14.49.182 1.003.124 1.51l-1.353 13.428-.555 5.162a3.863 3.863 0 01-4.251 3.426z" fill="#6F605B"/><path d="M242.008 108.273c0 3.165-6.714 10.625-6.714 10.625s-12.276-7.46-12.276-10.625c0-3.166 4.251-5.732 9.495-5.732 5.243 0 9.495 2.564 9.495 5.732z" fill="#8A7870"/><path d="M227.782 108.068l7.032 6.063 2.503-6.063h-9.535z" fill="#fff"/><path d="M247.002 219.097h-10.449l-.46-4.652h6.119a4.794 4.794 0 014.79 4.652z" fill="#3B3040"/><path d="M237.317 108.069s-1.252 1.333-4.767 1.333c-3.516 0-4.768-1.333-4.768-1.333v-8.626h9.536l-.001 8.626zm-13.096.671l-.026.009.026-.009z" fill="#FF8F6E"/><path d="M220.939 167.748h-1.996v-.671h1.996a2.838 2.838 0 002.834-2.837v-.999h.669v.999a3.511 3.511 0 01-3.503 3.508z" fill="#E38E2D"/><path d="M231.178 172.151v-8.912h4.116v4.791a4.124 4.124 0 01-1.206 2.914 4.111 4.111 0 01-2.91 1.207z" fill="#FFB966"/><path d="M218.873 163.239l-.362 2.661 27.702-2.656-27.34-.005z" fill="#382D3D"/><path d="M230.224 136.543l7.093-6.223.291.332-7.093 6.223-.291-.332z" fill="#5C4F4C"/><path d="M226.325 130.98l-.694-3.802-7.752 1.884a3.852 3.852 0 00-2.464 5.997 3.855 3.855 0 002.758 1.627 3.86 3.86 0 001.628-.181l6.524-5.525z" fill="#6F605B"/><path d="M237.886 102.906l-3.217 2.152a3.419 3.419 0 01-3.829 0l-3.217-2.152a3.853 3.853 0 01-1.669-3.207v-9.592c0-3.976 3.045-7.2 6.801-7.2 3.756 0 6.801 3.224 6.801 7.2v9.592a3.857 3.857 0 01-1.67 3.207z" fill="#FF8F6E"/><path d="M238.596 94.55l.005 2.126a5.433 5.433 0 01-1.586 3.835 5.4 5.4 0 01-3.83 1.587h-.651a5.417 5.417 0 01-5.416-5.422V94.55h-1.165v5.146a3.847 3.847 0 001.668 3.207l3.217 2.151a3.412 3.412 0 003.829 0l3.218-2.151a3.86 3.86 0 001.668-3.207l-.004-5.146h-.953z" fill="#A36F6F"/><path d="M229.168 99.632h7v.484c0 .929-.369 1.821-1.025 2.478a3.497 3.497 0 01-4.949 0 3.505 3.505 0 01-1.026-2.478v-.484z" fill="#FF8F6E"/><path d="M239.768 94.605h-1.166v-6.783h2.905l-1.739 6.783z" fill="#3B3040"/><path d="M239.498 80.714v2.407a4.704 4.704 0 01-3.577 4.565h-6.344a2.444 2.444 0 00-.632.08 1.68 1.68 0 00-.172.053h-.629v-2.406a4.704 4.704 0 012.897-4.344 4.679 4.679 0 011.797-.356l6.66.001z" fill="#8F5252"/><path d="M239.404 83.892a2.403 2.403 0 012.217 1.483c.121.291.183.604.183.92.001.441-.062.88-.187 1.305-.078.27-.181.533-.308.785a4.687 4.687 0 01-2.715 2.368v-.608a2.453 2.453 0 00-2.455-2.459h-5.606a.695.695 0 01.026-.118 4.695 4.695 0 013.804-3.61 4.73 4.73 0 01.776-.062l4.265-.004zm-8.957 1.822v1.972h-.873a2.43 2.43 0 00-.631.08 2.36 2.36 0 00-.623.262h-1.757a2.126 2.126 0 01-2.038-1.513c-.063-.2-.094-.41-.094-.62V83.58h3.879c.066 0 .132.005.197.008a2.13 2.13 0 011.94 2.126z" fill="#8F5252"/><path d="M225.951 94.55h1.166v-4.826h-2.905l1.739 4.825z" fill="#3B3040"/><path d="M228.946 87.77a2.353 2.353 0 00-.623.262 2.451 2.451 0 00-1.204 2.114v.82h-1.461a2.132 2.132 0 01-2.128-2.134v-2.314h3.477c.073 0 .146.003.219.013h.012c.154.013.305.047.45.1a2.155 2.155 0 011.254 1.127c.002.005.004.007.004.011z" fill="#8F5252"/><path d="M225.384 93.2a1.167 1.167 0 00-1.169 1.17v2.27a1.173 1.173 0 001.169 1.17h.57v-4.46a1.158 1.158 0 00-.57-.15zm14.743 0a1.17 1.17 0 011.169 1.17v2.27a1.172 1.172 0 01-1.169 1.17h-.569v-4.46c.173-.099.37-.15.569-.15z" fill="#FF8F6E"/><path d="M234.374 80.714a13.19 13.19 0 01-.586 3.242 7.348 7.348 0 01-.153.426 10.662 10.662 0 01-2.447 3.302h-.779l.032-.028.098-.09c.723-.668 2.142-2.095 2.657-3.417l.01-.028c.388-1.097.617-2.245.681-3.408l.487.001zm2.599 0a12.838 12.838 0 01-.47 3.177 5.313 5.313 0 01-.824 1.709 9.792 9.792 0 01-2.219 2.086h-1.049a9.45 9.45 0 002.908-2.468 4.46 4.46 0 00.664-1.327c.309-1.031.477-2.1.499-3.177h.491zm4.645 6.886c-.078.27-.18.533-.307.784-.944.357-1.92.621-2.914.789a2.465 2.465 0 00-.308-.523 11.849 11.849 0 003.529-1.05zm-11.817.086h-.226c-.21 0-.42.027-.623.08l-.012-.007a4.85 4.85 0 00-1.688-.645 5.25 5.25 0 01-1.559-.597 8.804 8.804 0 01-1.26-.88v-.758a6.82 6.82 0 002.792 1.65h.012c.039.01.082.02.124.027a5.555 5.555 0 01.344.078c.154.038.302.082.44.128.608.196 1.17.51 1.656.924z" fill="#3B3040"/><path d="M233.233 98.19h-.461a.66.66 0 01-.659-.66v-.787h.568v.57a.308.308 0 00.308.308h.243l.001.57z" fill="#CF5E4E"/><path d="M230.915 93.175h-2.042a.297.297 0 01-.295-.296v-.005a.295.295 0 01.264-.295l2.042-.217a.293.293 0 01.301.174.295.295 0 01.026.121v.222a.295.295 0 01-.087.21.289.289 0 01-.209.086zm5.869 0h-2.041a.298.298 0 01-.297-.296v-.221a.296.296 0 01.205-.282.301.301 0 01.123-.013l2.041.217a.295.295 0 01.265.294v.006a.293.293 0 01-.296.295zm-6.135 2.112c0 .562-.339 1.014-.757 1.014s-.757-.454-.757-1.014c0-.559.339-1.013.757-1.013s.757.454.757 1.013zm5.871 0c0 .562-.339 1.014-.757 1.014-.419 0-.757-.454-.757-1.014 0-.559.338-1.013.757-1.013.418 0 .757.454.757 1.013z" fill="#3B3040"/><path d="M231.082 101.412c.603.17 1.224.265 1.849.282a4.725 4.725 0 001.597-.282 1.839 1.839 0 01-1.615 1.202 2.34 2.34 0 01-1.831-1.202z" fill="#A36F6F"/><path d="M235.284 99.747a3.084 3.084 0 01-4.705 0h4.705z" fill="#fff"/><path d="M232.678 98.468h-2.073a1.275 1.275 0 00-1.276 1.277h3.349v-1.277zm.5 0h2.072a1.276 1.276 0 011.276 1.277h-3.348v-1.277z" fill="#A36F6F"/><path d="M228.46 125.25a1.718 1.718 0 011.714 1.716v1.109a5.11 5.11 0 01-3.151 4.723 5.1 5.1 0 01-1.954.389 1.715 1.715 0 01-1.714-1.717v-1.108a5.106 5.106 0 015.105-5.112z" fill="#FF8F6E"/><path d="M246.326 135.312c9.961 0 18.036-8.085 18.036-18.059s-8.075-18.06-18.036-18.06c-9.961 0-18.036 8.086-18.036 18.06 0 9.974 8.075 18.059 18.036 18.059z" fill="#4A77F7"/><path d="M246.326 109.54a5.993 5.993 0 00-4.242 1.759 6.01 6.01 0 00-1.757 4.247c0 3.318 5.999 10.661 5.999 10.661s5.999-7.343 5.999-10.661a6.01 6.01 0 00-1.757-4.247 5.993 5.993 0 00-4.242-1.759zm.125 8.491a2.655 2.655 0 01-2.603-3.177 2.654 2.654 0 015.257.519 2.658 2.658 0 01-2.652 2.656l-.002.002z" fill="#fff"/><path d="M260.229 128.166l3.066 2.92-12.399 13.722a3.86 3.86 0 01-2.707 1.203 3.868 3.868 0 01-3.688-2.43 3.881 3.881 0 01.151-3.219 3.885 3.885 0 011.049-1.271l14.528-10.925z" fill="#6F605B"/><path d="M262.123 123.251l2.304 1.256a2.766 2.766 0 011.331 1.65 2.76 2.76 0 01-.223 2.109l-1.794 3.3a2.623 2.623 0 01-3.558 1.051 2.78 2.78 0 01-1.332-1.65 2.78 2.78 0 01.224-2.109l3.048-5.607z" fill="#FF8F6E"/><path d="M147.212 25.923c.83 0 1.502-.674 1.502-1.505a1.503 1.503 0 10-3.005 0c0 .831.673 1.505 1.503 1.505zm4.616 0a1.504 1.504 0 10-.002-3.008 1.504 1.504 0 00.002 3.008zm6.12-1.504a1.507 1.507 0 01-.928 1.39 1.5 1.5 0 01-1.638-.327 1.507 1.507 0 011.064-2.568 1.505 1.505 0 011.502 1.505zm3.878 1.503a1.504 1.504 0 000-3.01 1.504 1.504 0 000 3.01zm4.617 0c.83 0 1.502-.674 1.502-1.505a1.503 1.503 0 10-3.005 0c0 .831.673 1.505 1.503 1.505zm4.616 0a1.504 1.504 0 000-3.01c-.83 0-1.502.674-1.502 1.505 0 .831.672 1.505 1.502 1.505z" fill="#E6E7E8"/></svg>