<svg width="36" height="36" viewBox="0 0 36 36" fill="none" xmlns="http://www.w3.org/2000/svg"><path fill-rule="evenodd" clip-rule="evenodd" d="M12.732 7.793v19.756l16.463-9.878-16.463-9.878z" fill="#FAFAFA"/><path d="M24.75 0h-13.5A11.25 11.25 0 000 11.25v13.5A11.25 11.25 0 0011.25 36h13.5A11.25 11.25 0 0036 24.75v-13.5A11.25 11.25 0 0024.75 0zm7.875 24.75c0 4.343-3.532 7.875-7.875 7.875h-13.5c-4.343 0-7.875-3.532-7.875-7.875v-13.5c0-4.343 3.532-7.875 7.875-7.875h13.5c4.343 0 7.875 3.532 7.875 7.875v13.5z" fill="url(#paint0_linear_332_4710)"/><path d="M18 9a9 9 0 100 18 9 9 0 000-18zm0 14.625A5.632 5.632 0 0112.375 18 5.631 5.631 0 0118 12.375c3.1 0 5.625 2.522 5.625 5.625 0 3.1-2.524 5.625-5.625 5.625z" fill="url(#paint1_linear_332_4710)"/><path d="M27.675 9.524a1.2 1.2 0 100-2.398 1.2 1.2 0 000 2.398z" fill="url(#paint2_linear_332_4710)"/><defs><linearGradient id="paint0_linear_332_4710" x1="3.294" y1="32.706" x2="32.706" y2="3.294" gradientUnits="userSpaceOnUse"><stop stop-color="#FFC107"/><stop offset=".507" stop-color="#F44336"/><stop offset=".99" stop-color="#9C27B0"/></linearGradient><linearGradient id="paint1_linear_332_4710" x1="11.637" y1="24.363" x2="24.363" y2="11.637" gradientUnits="userSpaceOnUse"><stop stop-color="#FFC107"/><stop offset=".507" stop-color="#F44336"/><stop offset=".99" stop-color="#9C27B0"/></linearGradient><linearGradient id="paint2_linear_332_4710" x1="26.827" y1="9.173" x2="28.523" y2="7.477" gradientUnits="userSpaceOnUse"><stop stop-color="#FFC107"/><stop offset=".507" stop-color="#F44336"/><stop offset=".99" stop-color="#9C27B0"/></linearGradient></defs></svg>