<svg width="21" height="20" viewBox="0 0 21 20" fill="none" xmlns="http://www.w3.org/2000/svg"><g clip-path="url(#clip0_361_3513)"><path d="M11.67.625L.5 2.628v14.797l11.17 1.95V.625zM7.588 12.393c-.475.628-1.075.955-1.787.984-.69-.035-1.275-.366-1.752-.99-.475-.626-.725-1.409-.737-2.35.012-.953.25-1.744.725-2.369.476-.623 1.064-.952 1.75-.98.714.029 1.314.358 1.777.98.471.625.715 1.415.733 2.37h.029c-.013.94-.263 1.724-.738 2.354z" fill="#136EC5"/><path d="M5.696 7.948l-.023.033c-.362.027-.664.228-.9.607-.25.378-.363.871-.363 1.465 0 .593.113 1.086.363 1.477.25.39.549.58.911.58.364 0 .664-.2.914-.592.238-.39.362-.884.362-1.49 0-.596-.125-1.087-.362-1.475-.24-.39-.543-.588-.902-.605z" fill="#136EC5"/><path d="M5.5 6.718c-.564.098-1.054.415-1.463.95-.474.624-.712 1.416-.724 2.37.012.94.262 1.723.737 2.35.405.53.89.848 1.45.954v-1.25c-.282-.055-.522-.24-.728-.563-.25-.39-.362-.884-.362-1.476 0-.594.112-1.088.362-1.466.199-.316.441-.509.728-.58V6.718z" fill="#DEDEDE"/><path d="M5.5 1.732l-5 .896v14.797l5 .872v-4.955c-.56-.106-1.045-.425-1.45-.955-.475-.626-.725-1.409-.737-2.35.012-.953.25-1.744.724-2.369.409-.534.899-.852 1.463-.95V1.732z" fill="#1160AC"/><path d="M5.5 8.008c-.286.07-.529.263-.727.58-.25.377-.363.87-.363 1.465 0 .592.113 1.085.363 1.476.205.323.445.508.727.563V8.008z" fill="#1160AC"/><path d="M12.696 4.415v4.234l1.64 1.304 6.141-4.946a.597.597 0 00-.206-.43.663.663 0 00-.453-.161h-7.122v-.001z" fill="#136EC5"/><path d="M12.696 15.617h7.122a.66.66 0 00.484-.195.65.65 0 00.198-.484V6.117l-5.83 4.675a.51.51 0 01-.325.106.474.474 0 01-.316-.106l-1.333-1.035v5.86z" fill="#136EC5"/><path d="M16.587 4.415h-3.891v4.234l1.64 1.304 2.25-1.813V4.415z" fill="#1160AC"/><path d="M16.587 9.254l-1.918 1.538a.51.51 0 01-.324.106.474.474 0 01-.316-.106l-1.333-1.035v5.859h3.89V9.254z" fill="#1160AC"/></g><defs><clipPath id="clip0_361_3513"><path fill="#fff" transform="translate(.5)" d="M0 0h20v20H0z"/></clipPath></defs></svg>