<svg width="25" height="22" viewBox="0 0 25 22" fill="none" xmlns="http://www.w3.org/2000/svg"><path d="M13 20c6.61 0 12-4.36 12-9.75C25 4.906 19.61.5 13 .5 6.344.5 1 4.906 1 10.25c0 2.156.797 4.078 2.203 5.672a6.665 6.665 0 01-.984 2.953c-.282.422-.516.797-.704 1.031-.093.094-.187.188-.234.282-.047 0-.047.046-.094.046-.187.235-.28.563-.14.844.093.281.375.469.703.469 1.312 0 2.672-.422 3.797-.938 1.078-.468 2.015-1.03 2.531-1.406 1.5.516 3.14.844 4.922.844V20zM10.469 7.297c.328-.094.656 0 .843.281L13 9.781l1.64-2.203c.188-.281.516-.375.844-.281.281.094.516.422.516.703v4.5c0 .422-.375.75-.75.75a.74.74 0 01-.75-.75v-2.25l-.938 1.219a.668.668 0 01-.562.281.756.756 0 01-.61-.281l-.89-1.219v2.25c0 .422-.375.75-.75.75a.74.74 0 01-.75-.75V8c0-.281.187-.61.469-.703zm8.156 1.781v.047l.094.047c.187.14.421.187.843.328h.047c.328.14.797.281 1.172.516.422.234.797.703.797 1.359.047.703-.328 1.219-.797 1.547a2.369 2.369 0 01-1.453.328c-.563 0-1.125-.188-1.547-.328-.047-.047-.094-.047-.187-.047a.785.785 0 01-.47-.984c.142-.375.563-.61.938-.47.094.048.188.048.235.095.422.14.75.234 1.078.234.234.047.469-.047.61-.094l.093-.094v-.14c0-.047 0-.094-.094-.14-.187-.141-.469-.235-.844-.329l-.046-.047a5.873 5.873 0 01-1.172-.422c-.422-.28-.797-.703-.797-1.406-.047-.703.375-1.172.844-1.453.421-.281.984-.375 1.406-.375.469 0 .89.14 1.312.234.375.094.61.516.516.891-.094.422-.516.656-.938.563-.328-.094-.656-.188-.937-.188-.234 0-.469.047-.61.14l-.093.094v.094zm-12.75 0v.047l.094.047c.187.14.421.187.843.328h.047c.328.14.797.281 1.172.516.422.234.797.703.797 1.359.047.703-.328 1.219-.797 1.547a2.368 2.368 0 01-1.453.328c-.563 0-1.125-.188-1.547-.328-.094-.047-.14-.047-.187-.047a.785.785 0 01-.47-.984c.141-.375.563-.61.938-.47.094.048.141.048.188.095.469.14.797.234 1.125.234.234.047.469-.047.61-.094l.093-.094v-.14c0-.047 0-.094-.094-.14-.187-.141-.469-.235-.844-.329l-.046-.047a5.873 5.873 0 01-1.172-.422c-.422-.28-.797-.703-.797-1.406-.047-.703.375-1.172.844-1.453.421-.281.984-.375 1.406-.375.422.047 1.031.14 1.453.234.375.094.61.516.516.891a.74.74 0 01-.891.563c-.328-.094-.797-.188-1.125-.188-.234 0-.469.047-.61.14l-.093.094v.094z" fill="#D169EB"/></svg>