<svg width="40" height="40" viewBox="0 0 40 40" fill="none" xmlns="http://www.w3.org/2000/svg"><path d="M34.172 5.813C30.412 2.067 25.412.003 20.084 0 9.106 0 .172 8.891.167 19.82a19.716 19.716 0 002.659 9.91L0 40l10.558-2.756a19.972 19.972 0 009.517 2.413h.009c10.976 0 19.911-8.893 19.916-19.821.002-5.297-2.068-10.277-5.828-14.023zM20.084 36.309h-.007a16.59 16.59 0 01-8.425-2.297l-.605-.356-6.265 1.635 1.673-6.08-.394-.622A16.377 16.377 0 013.53 19.82c.003-9.083 7.429-16.473 16.56-16.473a16.483 16.483 0 0111.703 4.831 16.337 16.337 0 014.844 11.655c-.004 9.084-7.43 16.475-16.553 16.475z" fill="#E0E0E0"/><path d="M1.333 38.667l2.638-9.929a19.584 19.584 0 01-2.482-9.579C1.493 8.595 9.832 0 20.078 0c4.973.002 9.64 1.998 13.149 5.62 3.51 3.62 5.442 8.435 5.44 13.554-.005 10.565-8.344 19.16-18.589 19.16 0 0 .001 0 0 0h-.008a18.143 18.143 0 01-8.882-2.332l-9.855 2.665z" fill="#fff"/><path fill-rule="evenodd" clip-rule="evenodd" d="M14.757 11.534c-.393-.825-.807-.841-1.181-.856-.306-.012-.656-.011-1.006-.011s-.918.124-1.4.62c-.48.495-1.837 1.693-1.837 4.13 0 2.436 1.881 4.79 2.143 5.12.263.331 3.632 5.49 8.967 7.475 4.433 1.65 5.336 1.322 6.298 1.24.962-.083 3.105-1.198 3.543-2.355.437-1.156.437-2.147.306-2.354-.131-.206-.481-.33-1.006-.578-.525-.247-3.105-1.446-3.587-1.61-.48-.166-.83-.248-1.18.247-.35.496-1.356 1.61-1.662 1.941-.306.33-.613.372-1.138.125-.524-.249-2.215-.771-4.22-2.458-1.56-1.313-2.614-2.934-2.92-3.43-.307-.495-.033-.763.23-1.01.236-.222.525-.578.788-.867.261-.29.349-.496.524-.826.175-.33.087-.62-.044-.867-.131-.248-1.151-2.697-1.618-3.676z" fill="#43C554"/><path d="M34.172 5.813C30.412 2.067 25.412.003 20.084 0 9.106 0 .172 8.891.167 19.82a19.716 19.716 0 002.658 9.91L0 40l10.558-2.756a19.973 19.973 0 009.517 2.413h.009c10.976 0 19.911-8.893 19.916-19.821.002-5.297-2.068-10.277-5.828-14.023zM20.084 36.309h-.007a16.59 16.59 0 01-8.425-2.296l-.605-.357-6.265 1.635 1.673-6.08-.394-.622A16.377 16.377 0 013.53 19.82c.003-9.083 7.429-16.473 16.56-16.473a16.484 16.484 0 0111.703 4.831 16.337 16.337 0 014.844 11.656c-.004 9.083-7.43 16.474-16.553 16.474z" fill="#44C554"/></svg>